<?xml version="1.0" standalone="no"?>
<!DOCTYPE svg PUBLIC "-//W3C//DTD SVG 20010904//EN"
 "http://www.w3.org/TR/2001/REC-SVG-20010904/DTD/svg10.dtd">
<svg version="1.0" xmlns="http://www.w3.org/2000/svg"
 width="768.000000pt" height="460.000000pt" viewBox="0 0 768.000000 460.000000"
 preserveAspectRatio="xMidYMid meet">

<g transform="translate(0.000000,460.000000) scale(0.100000,-0.100000)"
fill="#000000" stroke="none">
<path d="M100 4555 c-43 -42 -45 -46 -45 -102 1 -40 8 -73 24 -105 l23 -47
-25 -63 c-38 -97 -40 -123 -14 -152 12 -13 75 -47 139 -76 65 -29 121 -57 126
-64 4 -6 14 -29 21 -51 8 -22 25 -56 38 -76 49 -74 189 -150 313 -171 41 -6
76 -12 77 -13 2 -1 -6 -27 -17 -58 -11 -31 -20 -63 -20 -71 0 -8 -8 -17 -18
-20 -34 -11 -47 -50 -33 -98 7 -23 15 -64 18 -92 11 -120 70 -250 156 -343
l40 -44 -69 24 c-89 32 -144 44 -225 53 -61 6 -68 5 -78 -14 -15 -28 -2 -35
73 -37 122 -3 349 -97 447 -184 30 -27 67 -71 81 -98 32 -58 58 -151 58 -205
0 -31 4 -38 19 -38 37 0 40 65 7 172 -14 43 -21 80 -16 83 4 2 27 -6 51 -20
24 -13 70 -38 101 -55 93 -49 300 -97 365 -85 29 5 33 10 33 37 0 17 -9 46
-21 64 l-21 34 39 0 c54 0 83 23 83 65 0 19 -4 37 -10 40 -14 9 -12 25 3 25
25 0 152 97 223 171 92 95 152 189 188 293 5 15 18 3 65 -66 136 -195 312
-301 547 -330 152 -18 354 19 467 87 l40 23 24 -29 c49 -58 135 -18 149 69 5
35 11 42 35 47 76 17 115 104 65 148 l-23 21 22 45 c13 25 29 65 36 89 7 23
17 42 23 42 5 0 24 -13 41 -29 16 -16 95 -69 175 -116 147 -88 179 -115 204
-171 23 -51 83 -92 184 -124 51 -17 108 -30 126 -30 42 0 66 -9 66 -24 0 -14
61 -56 82 -56 34 0 48 12 42 35 -5 21 -1 23 80 38 104 19 188 56 230 101 18
18 47 41 66 50 19 9 64 40 100 69 62 49 145 95 155 86 2 -3 -1 -22 -7 -42 -16
-53 -3 -62 81 -61 53 1 98 12 197 47 71 24 138 48 148 52 16 7 18 5 12 -11
-15 -37 -30 -330 -20 -380 9 -47 10 -49 46 -52 68 -6 203 68 317 174 l59 55
16 -58 c9 -32 28 -89 43 -128 14 -38 25 -83 24 -100 -7 -140 -3 -193 18 -241
24 -54 57 -94 78 -94 11 0 9 8 -7 30 -42 60 -61 117 -61 191 0 99 28 171 97
248 58 63 147 117 177 105 12 -4 17 -1 17 10 0 23 -24 30 -60 18 -25 -9 -30
-8 -30 5 0 8 -13 32 -30 53 -16 21 -30 46 -30 55 0 15 6 17 37 12 32 -6 41 -3
59 20 34 42 48 23 41 -58 -5 -57 -3 -67 9 -62 8 3 17 16 20 28 3 13 14 31 24
40 51 47 85 -47 85 -235 -1 -94 -5 -127 -23 -180 -38 -107 -116 -262 -160
-317 -42 -53 -53 -78 -29 -71 17 6 107 126 141 190 90 167 124 352 94 514 -6
35 -8 67 -4 71 15 16 42 -17 59 -73 25 -80 19 -248 -13 -349 -50 -157 -143
-303 -225 -351 -39 -22 -54 -26 -100 -22 -30 3 -58 8 -62 12 -4 3 10 20 30 37
87 72 185 232 233 379 23 72 27 103 27 200 1 120 -11 170 -39 170 -12 0 -15
-5 -9 -22 4 -13 10 -63 12 -112 6 -101 -8 -172 -64 -328 -30 -83 -45 -108
-104 -177 -38 -43 -76 -81 -83 -84 -8 -3 -24 3 -37 14 -33 29 -39 24 -33 -28
4 -33 14 -55 30 -70 28 -26 96 -38 161 -28 43 6 56 15 119 79 77 77 124 162
179 321 32 89 37 180 21 359 l-8 98 88 83 88 83 7 85 c5 65 14 102 37 150 31
68 62 96 127 117 69 22 71 24 25 28 l-45 3 0 112 c0 136 -18 204 -75 276 -22
28 -40 52 -40 55 0 3 26 12 57 21 31 9 96 36 144 61 136 68 189 123 189 198 0
47 -30 56 -170 50 -73 -3 -110 -1 -110 6 0 6 10 27 23 48 23 36 35 65 56 130
l10 32 -108 0 -109 0 -30 -47 c-36 -56 -112 -131 -162 -160 -64 -38 -187 -66
-261 -60 -79 7 -166 47 -223 102 -35 34 -86 124 -86 153 0 9 -56 12 -245 12
-172 0 -245 -3 -245 -11 0 -30 80 -157 131 -209 54 -54 57 -58 36 -64 -12 -3
-56 -26 -98 -50 -58 -34 -88 -61 -124 -108 -53 -69 -109 -183 -120 -239 -6
-35 -9 -37 -53 -42 -26 -3 -55 -9 -64 -12 -28 -11 -22 19 10 57 34 40 94 139
116 192 20 49 21 128 1 166 -16 31 -61 60 -92 60 -16 0 -20 15 -31 114 -14
136 -17 146 -46 146 -22 0 -22 -1 -9 -62 7 -35 14 -99 16 -143 2 -74 -1 -86
-36 -160 -21 -44 -47 -89 -58 -102 -19 -20 -19 -43 0 -43 19 0 58 52 75 99 10
28 27 62 38 76 25 31 70 33 99 4 17 -17 20 -30 16 -66 -6 -53 -65 -175 -117
-242 -43 -55 -47 -63 -60 -148 -16 -98 -78 -267 -127 -345 -19 -29 -13 -44 11
-35 28 11 63 81 109 217 50 150 65 169 138 177 l44 5 0 -123 -1 -124 -41 -65
c-22 -36 -61 -104 -87 -152 -31 -57 -54 -89 -69 -94 -64 -20 -157 -73 -219
-125 -39 -33 -75 -59 -80 -59 -6 0 -22 13 -36 28 -51 54 -252 102 -428 102
-107 0 -262 -24 -323 -51 -55 -24 -52 -24 -92 11 -19 17 -68 49 -109 71 -41
23 -82 48 -91 55 -9 8 -32 22 -53 32 -57 28 -262 226 -275 265 -16 49 9 154
44 185 23 19 37 22 109 22 66 0 86 -3 98 -17 23 -26 86 -169 94 -211 4 -20 13
-49 20 -64 8 -15 14 -36 14 -48 0 -12 7 -20 16 -20 13 0 15 7 11 33 -15 88
-49 184 -97 267 -39 70 -50 99 -45 117 4 18 -1 36 -18 62 -78 118 -137 257
-137 321 0 40 25 79 53 81 55 5 80 -15 102 -84 19 -60 41 -97 56 -97 7 0 9 10
6 23 -11 45 -53 146 -68 164 -27 31 -27 45 -5 156 l22 107 -22 0 c-26 0 -35
-23 -56 -149 l-13 -76 -7 49 c-11 79 -66 137 -132 139 -28 1 -36 5 -36 19 0
11 -7 18 -19 18 -13 0 -22 -12 -31 -45 -7 -25 -10 -49 -6 -52 4 -4 21 -1 39 5
65 23 106 11 132 -38 21 -41 19 -76 -7 -102 -11 -11 -37 -53 -57 -92 -35 -70
-36 -73 -36 -191 1 -79 6 -140 17 -177 l16 -58 -26 -16 c-40 -24 -61 -56 -79
-126 -23 -90 -10 -130 72 -217 l65 -68 -16 -52 c-24 -81 -48 -132 -88 -184
-21 -27 -35 -51 -33 -53 3 -3 20 3 40 12 40 19 67 13 67 -14 0 -28 -33 -53
-79 -59 -39 -5 -41 -7 -41 -40 0 -53 -27 -103 -56 -103 -31 0 -40 22 -26 68 6
20 10 37 8 39 -2 2 -27 -13 -57 -33 -124 -84 -257 -124 -414 -124 -120 0 -185
11 -277 46 -256 98 -443 354 -499 685 -33 194 -77 293 -196 440 -60 75 -75
127 -54 182 14 37 72 62 112 48 37 -13 43 -1 23 42 -34 72 10 147 94 161 l40
6 4 55 c3 47 0 55 -14 55 -14 0 -18 -9 -18 -40 0 -37 -2 -40 -27 -40 -66 0
-133 -73 -133 -145 0 -38 -2 -41 -53 -65 -45 -22 -54 -31 -67 -70 -8 -25 -15
-46 -16 -48 -1 -1 -26 7 -55 19 -40 17 -77 23 -144 24 -50 1 -101 7 -112 14
-12 6 -29 11 -38 11 -26 0 -73 -28 -79 -47 -4 -11 -31 -26 -71 -39 l-64 -21
-6 46 c-19 141 -82 272 -163 342 -50 43 -99 59 -180 59 -98 0 -131 -25 -118
-88 5 -22 0 -31 -28 -52 -43 -31 -69 -74 -61 -100 3 -10 -3 -36 -13 -57 -18
-35 -25 -39 -78 -48 -46 -8 -61 -15 -69 -32 -5 -13 -17 -23 -26 -23 -18 0 -99
-74 -99 -90 0 -6 -15 -8 -37 -5 -49 7 -62 -2 -81 -63 l-17 -50 -105 49 c-58
27 -112 53 -120 58 -24 14 -16 74 22 153 48 99 108 171 187 223 36 24 84 62
106 84 37 38 38 41 16 41 -14 0 -43 -18 -72 -45 -51 -48 -59 -51 -90 -35 -13
8 -19 21 -19 45 0 28 -4 35 -19 35 -14 0 -18 -5 -14 -20 3 -11 0 -27 -7 -34
-9 -12 -6 -18 19 -31 17 -8 31 -18 31 -21 0 -4 -27 -35 -60 -71 -33 -35 -60
-68 -60 -73 0 -26 -30 -5 -44 30 -25 63 -21 111 12 143 15 15 32 27 38 27 5 0
14 11 21 25 18 40 -15 30 -67 -20z m944 5 c121 -46 224 -231 214 -386 -3 -46
-5 -49 -68 -95 -48 -35 -75 -48 -101 -48 -20 -1 -57 -12 -82 -26 l-46 -24 -7
37 c-3 20 -8 45 -10 54 -3 10 13 37 41 68 25 28 45 57 45 65 0 9 -13 23 -30
33 -23 14 -27 21 -18 30 7 7 24 12 40 12 31 0 98 29 98 43 0 5 -8 6 -17 2 -10
-4 -28 -10 -40 -12 -21 -5 -23 -2 -23 38 -1 57 -28 116 -79 172 -22 24 -38 47
-34 50 12 13 62 7 117 -13z m-145 -19 c18 -11 5 -31 -20 -31 -12 0 -19 7 -19
20 0 21 16 26 39 11z m71 -78 c35 -55 45 -99 30 -133 -17 -39 -60 -95 -73 -95
-17 0 -21 46 -5 56 10 7 9 9 -5 9 -10 0 -33 -16 -50 -35 -17 -19 -34 -35 -39
-35 -18 0 -7 50 18 82 23 29 22 28 -11 -5 -43 -45 -53 -43 -30 5 l16 33 -20
-25 -21 -25 0 26 c0 15 10 38 21 53 25 32 20 45 -6 16 -19 -21 -35 -26 -35
-11 0 31 128 131 168 131 7 0 26 -21 42 -47z m-187 -195 c8 -18 21 -39 31 -47
14 -12 19 -11 36 4 18 16 21 16 44 2 16 -11 36 -14 59 -10 51 8 53 -11 6 -62
-41 -45 -42 -46 -36 -106 6 -74 -4 -81 -74 -49 -48 23 -51 23 -84 7 -44 -21
-44 -21 -38 3 4 15 -2 22 -23 30 l-28 11 27 25 c15 14 27 28 27 33 0 14 -33
38 -77 57 -27 12 -43 25 -43 36 0 18 12 23 76 33 31 5 45 13 58 36 9 16 19 29
21 29 3 0 11 -15 18 -32z m767 -56 c18 -15 22 -24 16 -46 -4 -16 -16 -30 -27
-33 -21 -6 -49 -51 -49 -80 0 -10 9 -33 20 -51 l20 -33 -35 -30 c-39 -35 -56
-80 -44 -122 7 -24 4 -29 -25 -41 -49 -21 -86 -70 -86 -117 0 -37 -1 -39 -32
-39 -48 0 -97 -34 -116 -81 -14 -33 -21 -39 -40 -34 -31 8 -106 -27 -127 -59
-14 -21 -20 -23 -41 -15 -54 20 -164 0 -164 -31 0 -16 -31 -40 -52 -40 -29 0
-58 28 -58 56 0 14 12 31 29 43 19 14 31 33 36 58 32 177 299 478 529 598 36
19 82 37 101 41 25 4 40 15 50 34 23 44 58 52 95 22z m4747 -17 c153 -33 233
-56 233 -66 0 -10 -106 -50 -152 -56 -20 -3 -49 -2 -64 1 -26 7 -154 121 -154
138 0 11 5 11 137 -17z m-4558 -6 c76 -17 139 -49 145 -72 3 -12 24 -44 47
-72 102 -122 168 -267 194 -427 18 -111 37 -183 66 -255 l22 -54 -22 -67 c-38
-114 -86 -190 -186 -288 -91 -90 -177 -145 -283 -182 -43 -15 -33 -32 18 -32
30 0 42 -5 51 -22 10 -18 8 -24 -7 -35 -23 -17 -79 -11 -104 12 -23 21 -35 19
-48 -10 -10 -22 -65 -65 -84 -65 -15 0 -37 32 -31 46 3 8 18 21 34 30 16 8 29
19 29 24 0 5 -50 9 -117 9 -168 0 -287 36 -422 125 -162 108 -290 302 -291
439 0 33 3 37 26 37 17 0 38 12 59 36 47 50 107 58 153 19 35 -29 52 -26 52
10 0 37 55 78 99 72 20 -2 44 -7 54 -11 14 -7 17 -3 17 26 0 64 63 115 126
103 45 -8 54 -1 42 33 -23 60 25 132 88 132 41 0 50 14 30 45 -21 31 -20 64 1
95 22 33 44 49 65 50 31 0 31 21 -1 54 -42 43 -41 78 4 120 19 19 35 42 35 53
0 11 3 23 7 26 9 10 82 8 132 -4z m-1169 -17 c0 -5 -9 -17 -20 -27 -30 -27
-16 -31 20 -5 24 17 38 20 70 15 l40 -7 -42 -40 c-27 -25 -31 -30 -10 -14 31
24 82 36 82 19 0 -4 -16 -21 -35 -39 -19 -17 -35 -40 -35 -50 0 -14 2 -16 9
-6 10 17 56 12 56 -5 0 -17 -104 -83 -130 -83 -25 0 -118 45 -135 65 -16 19
33 117 77 156 34 29 53 37 53 21z m5627 -53 c93 -82 114 -93 180 -85 29 3 77
15 106 26 61 23 57 23 57 10 0 -5 -30 -41 -66 -80 -56 -58 -76 -73 -120 -86
-96 -28 -138 -2 -195 119 -29 62 -50 157 -36 157 3 0 37 -27 74 -61z m-2516
-74 c21 -44 50 -100 64 -125 l25 -45 -37 -7 c-71 -13 -80 -10 -92 25 -18 49
-35 219 -26 252 l7 30 11 -25 c6 -14 27 -61 48 -105z m-3248 29 c3 -4 2 -15
-4 -26 -8 -15 -13 -17 -25 -7 -20 16 -17 39 4 39 10 0 22 -3 25 -6z m5515 -58
c97 -33 125 -55 161 -128 25 -50 31 -73 31 -128 0 -54 -22 -164 -35 -178 -2
-2 -30 2 -64 9 -45 8 -61 16 -61 28 0 56 -82 84 -114 39 l-16 -22 -77 18 c-43
9 -111 27 -150 38 -84 24 -86 30 -57 129 63 210 172 266 382 195z m-5529 -36
c55 -53 92 -70 158 -77 58 -6 61 -11 38 -65 -4 -10 -3 -18 2 -18 14 0 46 74
46 105 0 17 4 24 12 21 7 -2 36 6 65 20 63 29 76 30 115 4 17 -11 40 -20 53
-20 l22 0 -20 -40 c-11 -21 -20 -55 -20 -74 0 -23 -13 -56 -37 -96 l-38 -61
-80 4 c-182 11 -335 116 -366 251 -10 47 -8 86 4 86 2 0 23 -18 46 -40z m581
-61 c-44 -45 -83 -80 -86 -77 -7 8 23 78 44 102 25 28 74 56 99 56 19 0 9 -14
-57 -81z m5680 -79 c64 -17 143 -73 179 -125 32 -48 33 -53 29 -130 -3 -59
-11 -95 -31 -137 -14 -32 -30 -58 -34 -58 -4 0 -77 16 -162 35 -85 19 -156 35
-158 35 -2 0 -3 10 -3 23 0 28 -9 41 -37 56 -32 17 -50 14 -75 -14 -23 -24
-23 -24 -75 -9 -62 18 -62 21 -32 120 56 184 200 257 399 204z m-5242 -1156
c12 -4 22 -10 22 -15 0 -14 -33 -10 -54 6 -22 16 -9 20 32 9z m212 -58 c0 -3
-4 -8 -10 -11 -5 -3 -10 -1 -10 4 0 6 5 11 10 11 6 0 10 -2 10 -4z m-137 -41
c30 -12 19 -28 -15 -21 -32 6 -58 23 -58 37 0 7 33 0 73 -16z m162 -5 c3 -5
-1 -10 -9 -10 -9 0 -16 5 -16 10 0 6 4 10 9 10 6 0 13 -4 16 -10z m-70 -30 c3
-5 -1 -10 -9 -10 -9 0 -16 5 -16 10 0 6 4 10 9 10 6 0 13 -4 16 -10z"/>
<path d="M1360 4000 c-23 -23 -25 -47 -6 -72 15 -21 66 -24 84 -6 20 20 14 65
-10 82 -30 21 -44 20 -68 -4z"/>
<path d="M1083 3894 c-18 -9 -42 -31 -53 -49 -23 -38 -37 -95 -23 -95 6 0 13
18 17 39 9 59 42 92 99 98 25 3 44 9 41 14 -8 14 -46 10 -81 -7z"/>
<path d="M932 3574 c-24 -17 -30 -62 -10 -82 20 -20 76 -15 88 7 15 29 12 49
-10 71 -24 24 -38 25 -68 4z"/>
<path d="M614 4134 c-18 -14 -18 -15 4 -4 12 6 22 13 22 15 0 8 -5 6 -26 -11z"/>
<path d="M2226 4581 c5 -9 6 -34 4 -56 -9 -92 -4 -170 15 -208 23 -48 105
-139 151 -167 19 -12 34 -27 34 -35 0 -7 -20 -29 -45 -49 -24 -20 -52 -50 -62
-66 -9 -17 -22 -29 -28 -29 -34 4 -59 -4 -80 -26 -32 -31 -32 -75 -2 -111 27
-31 64 -35 115 -13 30 13 37 12 70 -7 20 -12 43 -33 50 -48 15 -30 20 -31 46
-11 32 24 71 18 103 -15 32 -35 49 -38 58 -11 15 50 123 63 166 20 27 -27 35
-24 56 19 24 50 64 68 112 53 20 -7 41 -14 47 -17 7 -3 14 11 17 34 11 65 86
113 144 91 34 -13 45 -3 38 34 -4 22 1 46 17 77 21 41 27 46 67 51 85 11 115
86 59 146 -25 26 -74 31 -103 9 -16 -11 -24 -11 -59 5 -23 10 -51 19 -63 19
-13 0 -23 3 -23 8 0 4 16 39 35 77 53 105 70 245 30 245 -9 0 -14 -24 -17 -82
-5 -86 -23 -137 -74 -204 -21 -29 -29 -32 -101 -38 -67 -5 -84 -3 -118 14 -84
43 -201 15 -251 -59 -26 -41 -112 -91 -155 -91 -28 0 -139 90 -176 144 -60 87
-66 179 -18 270 l23 44 -44 -1 c-37 0 -44 -3 -38 -16z m618 -297 c29 -11 16
-21 -36 -28 -29 -4 -73 -16 -97 -27 -60 -26 -80 -26 -55 2 39 45 138 72 188
53z m311 -48 c28 -8 64 -20 82 -27 28 -11 34 -11 51 4 22 20 55 22 70 5 37
-47 8 -103 -48 -92 -25 6 -36 1 -69 -32 -26 -27 -41 -51 -45 -79 -7 -39 -8
-40 -48 -42 -46 -1 -83 -25 -116 -74 -20 -29 -28 -33 -60 -30 -48 3 -84 -11
-116 -45 -22 -25 -28 -26 -51 -16 -40 19 -96 14 -141 -12 l-41 -23 -27 20
c-21 15 -38 18 -77 15 -35 -4 -52 -1 -57 8 -11 20 -82 54 -113 54 -15 0 -32
-7 -39 -15 -7 -8 -26 -15 -41 -15 -36 0 -57 40 -40 77 8 18 19 23 50 23 34 0
43 5 68 38 41 56 90 96 174 141 194 104 486 158 634 117z"/>
<path d="M2732 4153 c-34 -16 -70 -59 -59 -69 3 -4 20 10 37 30 38 43 84 55
128 32 35 -18 42 -19 42 -8 0 14 -48 32 -83 32 -18 0 -47 -8 -65 -17z"/>
<path d="M3075 4095 c-14 -13 -25 -31 -25 -40 0 -21 36 -55 60 -55 24 0 60 34
60 55 0 18 -44 65 -60 65 -6 0 -22 -11 -35 -25z"/>
<path d="M2476 3928 c-21 -30 -20 -44 4 -68 24 -24 53 -26 74 -4 19 18 21 65
4 82 -20 20 -65 14 -82 -10z"/>
<path d="M2510 4591 c0 -5 7 -28 15 -51 30 -86 18 -103 -82 -117 -51 -7 -47
-23 5 -22 53 1 105 22 117 47 7 15 19 22 38 22 27 0 28 -2 27 -42 -1 -24 -1
-50 -1 -59 2 -31 33 -31 83 1 56 34 71 36 121 15 45 -19 83 -19 90 -1 3 8 -1
39 -9 70 -11 41 -12 61 -4 76 11 20 11 20 50 0 43 -22 70 -26 70 -10 0 10
-142 80 -163 80 -5 0 -2 -9 8 -20 14 -15 15 -23 6 -34 -8 -10 -9 -26 -2 -57
22 -95 15 -103 -63 -69 l-46 21 -44 -31 c-62 -42 -68 -40 -68 15 0 42 2 44 72
51 79 7 102 23 81 56 -10 16 -10 23 3 37 25 27 19 35 -9 12 -14 -11 -40 -23
-58 -27 l-32 -8 40 -6 c26 -3 41 -11 43 -22 3 -14 -11 -17 -90 -23 -137 -10
-139 -10 -156 53 -9 30 -20 52 -28 52 -8 0 -14 -4 -14 -9z"/>
<path d="M7495 3914 c-93 -15 -163 -58 -179 -111 -4 -13 1 -44 11 -72 16 -47
16 -52 0 -104 -28 -90 -18 -132 39 -163 46 -25 53 -12 15 31 -38 44 -40 79 -6
125 31 42 31 55 1 103 -37 60 -18 103 60 133 33 12 67 15 144 12 90 -3 100 -2
100 14 0 9 -3 19 -8 22 -12 7 -144 15 -177 10z"/>
<path d="M4406 3739 c-14 -11 -26 -28 -26 -38 0 -23 26 -58 36 -48 4 4 2 13
-4 19 -16 16 -15 34 4 52 37 38 94 3 109 -66 6 -27 3 -34 -19 -51 -29 -21 -34
-52 -10 -61 9 -3 31 -6 50 -6 26 0 34 4 34 18 0 11 -8 26 -19 36 -21 19 -18
60 7 88 27 31 122 36 122 6 0 -6 -7 -20 -17 -30 -13 -15 -14 -18 -2 -18 46 0
53 62 9 85 -38 19 -45 19 -97 -6 l-43 -21 -26 31 c-31 37 -69 41 -108 10z"/>
<path d="M7247 3696 c-50 -18 -74 -41 -102 -96 -35 -71 -49 -120 -36 -133 7
-7 12 -5 17 9 16 51 66 142 88 163 13 12 41 29 62 36 41 14 58 35 27 35 -10
-1 -35 -7 -56 -14z"/>
<path d="M4152 3528 c-14 -14 2 -48 23 -48 17 0 34 30 28 48 -6 15 -35 16 -51
0z"/>
<path d="M4854 3505 c-4 -9 0 -23 8 -31 20 -20 50 -7 46 20 -4 26 -45 35 -54
11z"/>
<path d="M7420 3363 c0 -73 92 -141 172 -128 66 11 88 22 88 44 0 19 -2 19
-41 6 -89 -32 -160 -6 -179 65 -13 47 -40 56 -40 13z"/>
<path d="M7408 3238 c-3 -23 -31 -97 -63 -163 -49 -102 -58 -131 -62 -190 -4
-58 -2 -74 13 -93 19 -23 19 -22 19 65 1 86 2 91 58 209 55 117 68 171 48 202
-5 9 -10 -1 -13 -30z"/>
<path d="M272 3105 c-78 -24 -116 -57 -207 -175 -27 -36 -53 -66 -57 -68 -4
-2 -8 -45 -8 -95 l1 -92 29 67 c102 237 263 363 359 282 34 -28 61 -26 61 4 0
25 -35 61 -76 78 -40 17 -46 17 -102 -1z"/>
<path d="M7512 2893 c-48 -17 -112 -74 -112 -101 0 -23 136 -152 160 -152 31
0 24 16 -27 56 -68 53 -83 72 -83 104 0 33 28 54 95 72 67 18 77 4 84 -121 5
-88 9 -103 29 -123 l24 -23 -6 45 c-3 25 -9 84 -12 133 -6 78 -9 90 -32 107
-29 23 -61 24 -120 3z"/>
<path d="M7173 2738 c-27 -13 -37 -36 -22 -54 15 -18 39 -18 67 2 26 18 29 49
6 58 -20 8 -24 7 -51 -6z"/>
<path d="M7304 2726 c-22 -34 -32 -203 -14 -246 13 -32 122 -139 175 -171 39
-25 70 -24 88 2 15 20 16 19 68 -30 72 -69 76 -44 5 28 -51 52 -57 62 -63 112
-3 29 -12 65 -19 79 -12 22 -13 14 -8 -65 3 -50 1 -96 -4 -104 -16 -22 -54 -6
-119 51 -98 87 -98 87 -98 215 0 70 4 116 11 123 18 18 64 -11 123 -77 60 -67
80 -65 25 3 -38 47 -116 104 -141 104 -7 0 -20 -11 -29 -24z"/>
<path d="M3573 2733 c9 -2 23 -2 30 0 6 3 -1 5 -18 5 -16 0 -22 -2 -12 -5z"/>
<path d="M2231 2704 c-19 -24 -21 -39 -19 -163 l2 -136 5 141 c6 150 14 174
57 174 35 0 54 -26 54 -76 0 -31 4 -44 14 -44 11 0 14 11 12 42 -6 77 -83 115
-125 62z"/>
<path d="M2427 2712 c-10 -10 -17 -23 -17 -28 0 -4 7 2 16 14 15 22 48 29 71
14 23 -15 28 -51 25 -186 -3 -133 -4 -137 -28 -153 -24 -15 -27 -15 -56 7 -18
13 -29 17 -26 9 3 -8 18 -22 35 -32 39 -22 79 -9 94 30 6 16 9 84 7 161 -3
132 -3 134 -31 158 -33 29 -68 31 -90 6z"/>
<path d="M2657 2723 c18 -2 50 -2 70 0 21 2 7 4 -32 4 -38 0 -55 -2 -38 -4z"/>
<path d="M2882 2714 c-12 -8 -22 -19 -22 -25 0 -5 9 0 20 11 24 24 53 26 74 4
13 -12 16 -39 16 -124 l0 -109 52 -3 c45 -3 55 -7 67 -30 14 -24 14 -28 -3
-47 -17 -18 -31 -21 -107 -21 -79 0 -89 2 -105 23 -12 16 -15 17 -10 4 3 -10
6 -21 6 -23 0 -31 221 -34 240 -4 28 44 -20 110 -78 110 -19 0 -32 5 -32 13
-2 159 -7 191 -34 214 -32 27 -53 29 -84 7z"/>
<path d="M3160 2710 c-18 -18 -20 -33 -20 -168 0 -145 1 -149 25 -172 22 -21
34 -23 114 -24 100 0 121 10 121 56 0 41 -40 78 -85 78 l-35 0 0 94 c0 87 -2
97 -26 125 -30 36 -65 40 -94 11z m84 -12 c12 -17 16 -48 16 -125 l0 -103 43
0 c57 0 85 -27 71 -68 -9 -26 -11 -27 -101 -30 -125 -4 -123 -7 -123 170 0
118 3 145 17 160 22 25 59 23 77 -4z"/>
<path d="M3174 2530 c0 -74 1 -105 3 -67 2 37 2 97 0 135 -2 37 -3 6 -3 -68z"/>
<path d="M3285 2400 l-60 -7 63 -1 c36 -1 62 2 62 8 0 6 -1 9 -2 8 -2 -1 -30
-4 -63 -8z"/>
<path d="M3483 2703 c-40 -25 -83 -86 -83 -114 1 -8 8 2 16 21 21 48 51 79 99
101 22 10 33 19 25 19 -9 0 -34 -12 -57 -27z"/>
<path d="M3628 2723 c7 -3 16 -2 19 1 4 3 -2 6 -13 5 -11 0 -14 -3 -6 -6z"/>
<path d="M3964 2708 c-19 -23 -19 -23 2 -5 47 40 94 11 94 -59 0 -51 9 -55 33
-14 51 85 96 110 130 72 24 -26 21 -41 -18 -99 -19 -29 -35 -54 -35 -56 0 -2
18 -28 40 -58 46 -61 49 -96 11 -116 -33 -16 -50 -5 -103 62 -24 29 -46 54
-50 54 -5 1 -8 -21 -8 -48 0 -27 -6 -53 -12 -59 -24 -19 -53 -21 -73 -6 -18
13 -21 30 -26 162 l-5 147 -2 -142 c-2 -134 -1 -143 21 -167 50 -57 121 -34
121 39 l0 37 53 -57 c46 -51 55 -57 80 -51 67 17 72 62 16 136 l-40 52 33 50
c19 28 34 60 34 73 0 30 -46 75 -77 75 -24 0 -83 -51 -83 -71 0 -5 -4 -9 -10
-9 -5 0 -10 9 -10 19 0 24 -45 61 -75 61 -12 0 -30 -10 -41 -22z"/>
<path d="M4326 2714 c-24 -23 -27 -48 -24 -184 l4 -125 2 135 c2 147 12 180
56 180 48 0 56 -25 56 -178 0 -129 -2 -144 -20 -162 -26 -26 -44 -25 -70 2
-11 12 -20 17 -20 11 0 -16 49 -53 69 -53 9 0 27 7 39 16 21 15 22 21 22 174
l0 159 -26 20 c-32 25 -67 27 -88 5z"/>
<path d="M4492 2714 c-12 -8 -22 -20 -22 -26 0 -7 6 -3 14 8 12 16 31 20 133
25 l118 5 -110 2 c-86 2 -115 -1 -133 -14z"/>
<path d="M4903 2723 c31 -2 83 -2 115 0 31 2 5 3 -58 3 -63 0 -89 -1 -57 -3z"/>
<path d="M5167 2712 c-10 -10 -17 -23 -17 -28 0 -4 7 2 16 14 28 40 70 27 113
-35 l22 -33 33 43 c36 47 68 57 97 31 28 -25 24 -48 -23 -117 -37 -53 -44 -71
-48 -126 -4 -55 -9 -67 -32 -84 -25 -19 -28 -19 -52 -4 -21 14 -26 26 -29 74
l-3 58 -2 -57 c-2 -52 1 -58 29 -82 37 -31 49 -32 83 -5 23 18 26 28 26 80 0
54 4 64 45 121 52 72 57 107 20 143 -39 40 -83 32 -115 -21 l-21 -33 -38 39
c-42 44 -77 52 -104 22z"/>
<path d="M2586 2704 c-13 -13 -16 -42 -16 -159 0 -135 1 -145 23 -170 20 -23
29 -25 116 -27 87 -2 95 -1 112 21 24 29 17 57 -21 91 -28 25 -28 26 -10 38
25 15 25 33 0 65 l-20 26 22 7 c30 9 38 22 38 60 0 32 -25 64 -51 64 -8 0 -5
-6 9 -16 50 -35 12 -94 -60 -94 -27 0 -38 -4 -38 -15 0 -11 11 -15 40 -15 29
0 42 -5 50 -20 14 -27 -19 -60 -60 -60 -20 0 -30 -5 -30 -15 0 -11 12 -15 44
-15 50 0 76 -19 76 -54 0 -39 -18 -46 -117 -46 -81 0 -94 2 -103 19 -5 11 -10
82 -10 160 0 133 1 141 22 155 12 9 17 16 11 16 -6 0 -19 -7 -27 -16z"/>
<path d="M3705 2679 c51 -47 69 -93 62 -155 -20 -180 -265 -225 -345 -63 -12
24 -22 38 -22 31 0 -39 58 -106 119 -137 53 -27 148 -17 196 19 99 76 98 233
-3 316 -54 44 -59 37 -7 -11z"/>
<path d="M4753 2702 c34 -37 9 -82 -44 -82 l-29 0 0 -103 c0 -77 -4 -108 -16
-125 -20 -30 -67 -29 -90 1 -12 16 -15 17 -10 4 3 -10 6 -20 6 -23 0 -2 13
-10 29 -19 35 -18 74 -7 90 24 6 11 11 64 11 119 l0 99 32 1 c35 1 58 23 58
57 0 24 -26 65 -42 65 -6 0 -4 -8 5 -18z"/>
<path d="M4820 2705 c-7 -9 -11 -17 -9 -20 3 -2 10 5 17 15 14 24 10 26 -8 5z"/>
<path d="M5093 2703 c9 -11 17 -26 17 -35 0 -23 -33 -48 -63 -48 l-27 0 0
-103 c0 -77 -4 -108 -16 -125 -20 -30 -67 -29 -90 1 -12 16 -15 17 -10 4 3
-10 6 -20 6 -23 0 -6 58 -34 70 -34 6 0 22 11 35 25 23 22 25 31 25 124 l0
101 28 6 c48 10 51 13 58 40 8 31 -12 74 -36 82 -12 4 -11 1 3 -15z"/>
<path d="M340 2690 c-11 -11 -17 -26 -14 -33 7 -19 48 -37 83 -37 56 0 66 55
15 78 -36 17 -61 15 -84 -8z"/>
<path d="M5185 2690 c-3 -5 -1 -10 4 -10 6 0 11 5 11 10 0 6 -2 10 -4 10 -3 0
-8 -4 -11 -10z"/>
<path d="M2403 2635 c0 -22 2 -30 4 -17 2 12 2 30 0 40 -3 9 -5 -1 -4 -23z"/>
<path d="M2852 2640 c0 -19 2 -27 5 -17 2 9 2 25 0 35 -3 9 -5 1 -5 -18z"/>
<path d="M4104 2616 c-20 -31 -35 -59 -32 -61 3 -3 22 20 42 51 21 31 35 58
32 61 -2 3 -21 -20 -42 -51z"/>
<path d="M5336 2644 c-10 -14 -15 -28 -13 -31 3 -2 13 7 23 21 9 15 14 29 12
32 -3 2 -13 -7 -22 -22z"/>
<path d="M2240 2536 c0 -101 3 -128 16 -141 9 -9 19 -13 23 -9 3 4 0 9 -6 11
-10 3 -13 40 -13 134 0 79 -4 129 -10 129 -6 0 -10 -48 -10 -124z"/>
<path d="M2432 2630 c0 -19 2 -27 5 -17 2 9 2 25 0 35 -3 9 -5 1 -5 -18z"/>
<path d="M2604 2530 c0 -74 1 -105 3 -67 2 37 2 97 0 135 -2 37 -3 6 -3 -68z"/>
<path d="M2880 2537 c0 -69 3 -128 8 -130 8 -6 6 242 -3 251 -3 3 -5 -51 -5
-121z"/>
<path d="M3970 2539 c0 -92 4 -130 14 -145 8 -10 18 -16 21 -12 4 4 0 15 -9
24 -14 14 -17 36 -15 131 1 63 -1 117 -5 120 -3 4 -6 -50 -6 -118z"/>
<path d="M4332 2538 c-2 -105 1 -129 14 -143 9 -9 19 -13 22 -10 4 3 0 10 -8
15 -11 7 -16 40 -21 137 l-5 128 -2 -127z"/>
<path d="M4495 2649 c4 -5 22 -9 42 -9 45 0 40 5 -10 13 -22 3 -35 2 -32 -4z"/>
<path d="M4708 2653 c-16 -2 -28 -8 -28 -12 0 -4 14 -6 30 -3 17 2 30 8 30 13
0 5 -1 8 -2 8 -2 -1 -15 -4 -30 -6z"/>
<path d="M4833 2653 c8 -13 67 -23 67 -11 0 4 -9 8 -19 8 -11 0 -27 3 -37 7
-11 4 -15 3 -11 -4z"/>
<path d="M5048 2653 c-16 -2 -28 -8 -28 -12 0 -4 14 -6 30 -3 17 2 30 8 30 13
0 5 -1 8 -2 8 -2 -1 -15 -4 -30 -6z"/>
<path d="M5150 2652 c0 -15 74 -127 91 -138 7 -4 -6 20 -28 52 -22 32 -45 68
-51 79 -6 11 -12 14 -12 7z"/>
<path d="M5180 2656 c0 -4 19 -35 43 -69 36 -53 43 -71 47 -127 4 -55 8 -65
25 -68 18 -2 18 -2 3 8 -14 8 -18 25 -18 69 0 51 -5 64 -41 117 -46 66 -59 82
-59 70z"/>
<path d="M2690 2640 c0 -13 60 -13 80 0 11 7 2 10 -32 10 -27 0 -48 -4 -48
-10z"/>
<path d="M3545 2641 c-15 -7 -7 -8 28 -7 43 1 52 -3 79 -33 23 -26 29 -41 26
-67 -2 -18 0 -30 4 -28 4 3 8 21 8 39 0 67 -84 123 -145 96z"/>
<path d="M4470 2643 c0 -15 24 -33 59 -43 24 -7 31 -6 31 6 0 9 -10 14 -27 14
-14 0 -35 7 -45 17 -10 9 -18 11 -18 6z"/>
<path d="M4810 2642 c0 -15 34 -39 63 -44 18 -4 27 -1 27 8 0 9 -11 14 -29 14
-16 0 -37 7 -45 16 -9 8 -16 11 -16 6z"/>
<path d="M3439 2614 c-31 -79 -9 -162 54 -208 35 -26 148 -30 169 -7 11 12 10
13 -7 6 -66 -25 -122 -16 -169 28 -46 44 -61 101 -42 158 17 49 13 68 -5 23z"/>
<path d="M3559 2608 c-26 -9 -49 -44 -49 -74 0 -8 11 -26 25 -39 46 -47 125
-20 125 43 0 57 -46 88 -101 70z m79 -30 c17 -17 15 -58 -5 -80 -20 -22 -66
-24 -87 -2 -21 21 -20 36 5 68 22 28 66 35 87 14z"/>
<path d="M4592 2509 c-2 -95 1 -118 13 -122 8 -4 17 -2 20 3 4 6 -1 10 -9 10
-13 0 -16 20 -19 113 l-3 112 -2 -116z"/>
<path d="M4932 2615 c-2 -5 -3 -57 -2 -115 1 -102 9 -128 35 -112 6 4 3 8 -7
10 -15 3 -18 19 -21 115 -1 62 -4 108 -5 102z"/>
<path d="M7605 2570 c-4 -6 -3 -41 1 -77 5 -50 12 -72 30 -90 28 -28 44 -29
44 -3 0 11 -4 20 -9 20 -26 0 -41 34 -41 90 0 56 -11 82 -25 60z"/>
<path d="M2852 2550 c0 -14 2 -19 5 -12 2 6 2 18 0 25 -3 6 -5 1 -5 -13z"/>
<path d="M3392 2540 c0 -19 2 -27 5 -17 2 9 2 25 0 35 -3 9 -5 1 -5 -18z"/>
<path d="M2690 2530 c0 -5 13 -10 29 -10 17 0 33 5 36 10 4 6 -8 10 -29 10
-20 0 -36 -4 -36 -10z"/>
<path d="M2334 2518 c-3 -4 18 -8 45 -8 l51 0 0 -49 c0 -47 23 -92 39 -76 3 4
-2 11 -12 16 -13 8 -17 23 -17 64 0 37 -4 55 -12 56 -59 5 -90 4 -94 -3z"/>
<path d="M4090 2509 c0 -10 80 -113 95 -122 22 -12 18 -4 -14 34 -17 19 -41
48 -55 64 -14 17 -26 27 -26 24z"/>
<path d="M2852 2480 c0 -14 2 -19 5 -12 2 6 2 18 0 25 -3 6 -5 1 -5 -13z"/>
<path d="M2330 2441 c0 -27 -6 -53 -12 -58 -27 -21 -47 -21 -72 -2 -14 11 -26
16 -26 10 0 -12 58 -51 76 -51 30 0 58 38 60 81 1 36 6 45 22 47 17 3 21 -3
25 -30 3 -29 4 -28 5 10 l2 42 -40 0 -40 0 0 -49z"/>
<path d="M211 2434 c-35 -44 -21 -104 24 -104 50 0 75 85 33 114 -30 21 -33
20 -57 -10z"/>
<path d="M1270 2383 c-6 -16 -19 -44 -30 -64 -25 -45 -25 -59 -2 -59 23 0 92
70 92 94 0 26 -19 56 -36 56 -8 0 -19 -12 -24 -27z"/>
<path d="M2720 2400 l-55 -7 58 -1 c32 -1 57 2 57 8 0 6 -1 9 -2 8 -2 -1 -28
-4 -58 -8z"/>
<path d="M3005 2400 l-60 -7 63 -1 c36 -1 62 2 62 8 0 6 -1 9 -2 8 -2 -1 -30
-4 -63 -8z"/>
<path d="M5318 2263 c7 -3 16 -2 19 1 4 3 -2 6 -13 5 -11 0 -14 -3 -6 -6z"/>
<path d="M7412 2254 c-52 -36 0 -85 53 -50 27 18 32 35 13 54 -16 16 -39 15
-66 -4z"/>
<path d="M1318 2235 c-12 -14 -26 -25 -32 -25 -18 -1 -61 -38 -53 -46 8 -8 82
-7 109 1 18 6 43 69 33 85 -11 17 -34 11 -57 -15z"/>
<path d="M2352 2243 c-21 -19 -142 -274 -142 -299 0 -23 55 -74 80 -74 11 0
32 11 46 25 18 18 36 25 66 25 28 0 49 -7 70 -25 34 -29 55 -31 86 -9 35 24
27 64 -42 208 -76 161 -113 193 -164 149z m63 1 c20 -8 145 -267 145 -300 0
-22 -33 -54 -56 -54 -7 0 -22 11 -35 25 -35 36 -117 36 -153 0 -14 -14 -31
-25 -39 -25 -18 0 -57 37 -57 56 0 20 116 263 137 286 17 19 31 22 58 12z"/>
<path d="M2297 2077 c-56 -121 -61 -149 -31 -161 19 -7 18 4 -2 18 -13 10 -8
26 41 131 30 65 54 123 52 128 -1 5 -28 -47 -60 -116z"/>
<path d="M2418 2060 c22 -52 35 -52 15 0 -9 22 -20 40 -24 40 -4 0 0 -18 9
-40z"/>
<path d="M2382 2053 c-16 -29 -15 -33 8 -33 22 0 23 4 11 35 -8 19 -8 19 -19
-2z"/>
<path d="M2390 1963 c56 -4 68 -8 87 -31 11 -15 24 -24 28 -21 3 4 -5 19 -18
33 -22 24 -31 26 -93 24 l-69 -2 65 -3z"/>
<path d="M2622 2244 c-12 -8 -22 -19 -22 -25 0 -5 9 0 20 11 20 20 47 25 66
12 5 -4 33 -35 62 -70 29 -35 52 -58 52 -52 0 5 -12 25 -27 42 -87 101 -108
113 -151 82z"/>
<path d="M2822 2244 c-12 -8 -22 -19 -22 -25 0 -5 9 0 20 11 24 24 53 26 74 4
13 -12 16 -42 17 -147 2 -157 2 -157 -18 -179 -26 -29 -49 -21 -98 35 l-47 52
34 -49 c53 -78 86 -92 128 -58 22 18 23 24 21 173 -1 151 -2 154 -27 177 -30
26 -51 28 -82 6z"/>
<path d="M4050 2240 c-18 -18 -20 -33 -20 -164 0 -141 1 -145 26 -175 30 -36
65 -40 94 -11 18 18 20 33 20 170 0 150 0 151 -26 175 -33 30 -67 32 -94 5z
m84 -12 c13 -18 16 -52 16 -160 0 -125 -2 -140 -20 -158 -11 -11 -27 -20 -35
-20 -8 0 -24 9 -35 20 -18 18 -20 33 -20 162 0 118 3 145 17 160 22 25 59 23
77 -4z"/>
<path d="M4062 2064 c-2 -108 1 -134 13 -144 9 -7 18 -10 22 -6 4 3 -1 12 -10
19 -14 10 -17 35 -20 137 l-3 125 -2 -131z"/>
<path d="M4490 2240 c-18 -18 -20 -33 -20 -169 l0 -149 31 -26 c17 -14 39 -26
50 -26 33 0 59 36 59 82 l0 41 58 -61 c62 -67 88 -76 122 -42 18 18 20 33 20
166 l0 146 -29 29 c-53 53 -111 25 -111 -53 l-1 -43 -55 63 c-61 68 -89 77
-124 42z m126 -62 l59 -73 3 55 c5 83 47 115 92 70 18 -18 20 -33 20 -149 0
-136 -7 -174 -36 -185 -30 -12 -53 4 -109 76 l-55 70 0 -56 c0 -43 -5 -61 -20
-76 -24 -24 -38 -25 -68 -4 -21 14 -22 22 -22 161 0 122 3 149 17 165 31 34
57 23 119 -54z"/>
<path d="M4502 2064 c-2 -107 1 -134 13 -144 16 -14 21 0 5 16 -5 5 -11 66
-13 134 l-3 125 -2 -131z"/>
<path d="M4695 2140 c1 -27 4 -52 8 -56 4 -4 7 18 7 49 0 32 -3 57 -7 57 -5 0
-8 -22 -8 -50z"/>
<path d="M4606 2060 c17 -34 116 -150 123 -146 7 5 -17 36 -99 126 -17 19 -28
28 -24 20z"/>
<path d="M5248 2244 c-15 -8 -32 -23 -38 -34 -17 -32 -11 -34 12 -5 12 15 35
33 52 41 17 7 24 13 16 13 -8 0 -27 -6 -42 -15z"/>
<path d="M5390 2242 c47 -23 62 -65 33 -93 l-21 -21 -41 23 c-43 24 -69 18
-51 -11 9 -13 11 -13 20 0 7 12 12 12 22 2 9 -9 9 -12 -2 -13 -8 0 4 -9 27
-19 84 -37 102 -123 39 -186 -31 -31 -40 -34 -91 -34 -67 0 -106 19 -129 64
-13 26 -15 27 -10 6 23 -91 177 -128 250 -59 52 49 51 124 -3 181 -15 15 -25
29 -22 30 2 2 13 8 24 14 12 6 21 24 23 41 2 24 -4 36 -33 62 -20 17 -43 31
-53 31 -9 0 -1 -8 18 -18z"/>
<path d="M2969 2233 c-13 -17 -13 -17 6 -3 11 8 22 16 24 17 2 2 0 3 -6 3 -6
0 -17 -8 -24 -17z"/>
<path d="M3128 2243 c6 -2 18 -2 25 0 6 3 1 5 -13 5 -14 0 -19 -2 -12 -5z"/>
<path d="M3456 2234 c-9 -8 -16 -21 -16 -27 0 -7 5 -4 11 5 5 10 17 22 27 27
9 6 12 11 5 11 -6 0 -19 -7 -27 -16z"/>
<path d="M3658 2234 c50 -35 10 -94 -63 -94 -35 0 -43 -3 -39 -14 3 -8 22 -16
41 -18 73 -6 70 -70 -3 -76 -39 -3 -40 -4 -36 -38 11 -95 -75 -142 -108 -59
-9 20 -9 19 -9 -2 -1 -26 43 -63 73 -63 41 0 59 23 64 84 4 55 5 56 36 56 18
0 37 5 44 12 18 18 14 53 -8 73 -19 18 -19 18 13 34 41 21 48 63 16 97 -12 13
-27 24 -33 24 -6 0 0 -7 12 -16z"/>
<path d="M3730 2235 c-20 -25 -6 -31 17 -7 14 14 18 22 9 22 -8 0 -19 -7 -26
-15z"/>
<path d="M3917 2235 c66 -28 94 -125 53 -178 l-20 -26 20 -33 c27 -44 25 -74
-5 -94 -35 -23 -60 -10 -92 47 -32 56 -41 61 -35 20 3 -22 -2 -36 -21 -55 -33
-33 -50 -33 -76 0 -12 15 -21 22 -21 15 0 -17 37 -50 64 -57 32 -8 64 11 72
41 l6 24 33 -34 c36 -38 59 -43 93 -19 27 18 30 69 6 103 -15 21 -15 25 1 55
13 24 16 46 12 82 -4 40 -12 55 -46 86 -22 21 -48 38 -58 38 -11 -1 -5 -6 14
-15z"/>
<path d="M4206 2234 c-13 -13 -16 -42 -16 -163 0 -146 0 -148 26 -172 22 -20
37 -24 102 -27 95 -3 126 10 130 56 3 25 -3 39 -25 60 -28 26 -28 28 -11 44
19 19 16 41 -10 71 -13 15 -13 17 0 17 22 0 48 33 48 62 0 26 -37 68 -61 68
-8 0 -3 -6 11 -13 59 -30 26 -97 -47 -97 -56 0 -62 -27 -7 -32 72 -6 72 -70 0
-76 -55 -5 -49 -32 7 -32 74 0 105 -67 47 -98 -31 -16 -162 -11 -184 8 -13 10
-16 39 -16 161 0 141 1 149 22 163 12 9 17 16 11 16 -6 0 -19 -7 -27 -16z"/>
<path d="M4840 2235 c-7 -9 -10 -18 -6 -22 3 -3 6 -1 6 6 0 6 10 16 23 21 15
6 17 9 6 9 -9 1 -22 -6 -29 -14z"/>
<path d="M5020 2241 c135 -41 180 -178 93 -282 -40 -47 -79 -62 -166 -63 -71
-1 -81 1 -98 23 -12 15 -19 18 -19 9 0 -8 9 -23 21 -34 30 -27 167 -27 226 0
106 47 134 194 56 287 -28 33 -92 69 -120 68 -12 0 -10 -3 7 -8z"/>
<path d="M3201 2217 c55 -37 79 -81 79 -147 0 -65 -24 -110 -78 -147 -55 -36
-208 -43 -229 -10 -5 7 -10 77 -14 157 l-5 145 -2 -142 c-2 -137 -1 -143 22
-170 23 -26 29 -28 103 -28 94 0 122 7 163 41 43 37 63 80 63 140 0 64 -36
132 -87 163 -45 28 -58 27 -15 -2z"/>
<path d="M5351 2176 c42 -22 69 -24 69 -5 0 4 -7 6 -15 3 -8 -4 -26 1 -40 10
-13 9 -32 16 -41 16 -10 0 3 -11 27 -24z"/>
<path d="M6440 2188 c0 -4 -20 -26 -44 -48 -58 -53 -98 -151 -121 -289 -14
-84 -17 -139 -12 -290 4 -102 10 -205 15 -229 8 -38 8 -42 -7 -36 -9 4 -38 9
-66 11 -85 7 -145 -47 -131 -119 7 -35 40 -79 74 -97 13 -7 23 -25 27 -50 3
-21 17 -49 29 -60 21 -19 23 -32 23 -99 0 -171 85 -327 213 -392 49 -25 143
-50 187 -50 32 0 46 -21 23 -35 -21 -13 -9 -45 30 -78 45 -38 97 -57 161 -57
24 0 53 -7 63 -15 11 -8 28 -15 38 -15 10 0 18 -5 18 -11 0 -15 84 -96 119
-114 17 -8 32 -26 36 -42 11 -48 33 -73 64 -73 16 0 35 8 42 17 13 15 11 16
-18 10 -29 -6 -34 -3 -49 24 -9 17 -14 40 -11 50 4 15 -5 23 -39 38 -42 19
-59 41 -31 41 7 0 23 7 36 16 13 9 41 17 63 18 32 2 47 10 71 36 25 29 28 38
23 73 -5 29 -1 54 15 92 l22 53 58 4 c46 3 69 11 104 36 25 18 49 32 54 32 18
0 101 -52 130 -82 27 -28 31 -29 31 -12 0 11 -5 25 -11 31 -9 9 -9 20 1 43 16
39 4 52 -21 21 l-19 -24 -45 24 c-25 13 -45 28 -45 32 0 5 9 22 20 37 26 36
52 110 46 127 -3 7 -16 13 -30 13 -55 0 -57 8 -15 68 133 189 94 438 -96 611
-33 29 -82 65 -110 78 -38 19 -59 38 -79 71 -33 54 -26 62 50 62 71 0 189 32
279 76 67 33 75 40 75 65 l0 28 -57 -35 c-89 -53 -171 -75 -305 -81 l-118 -6
-63 60 c-35 32 -81 68 -103 78 -59 28 -157 31 -222 7 -38 -15 -54 -17 -56 -9
-2 7 -9 43 -15 80 -35 207 -114 301 -245 295 -31 -2 -56 -6 -56 -10z m154 -48
c54 -33 107 -158 122 -288 l6 -60 -55 -55 c-57 -57 -127 -180 -127 -223 0 -27
-17 -41 -33 -25 -18 18 -82 13 -111 -10 -39 -31 -56 -71 -56 -134 0 -83 -16
-66 -31 33 -20 132 -18 398 4 502 29 138 89 244 152 270 36 15 97 11 129 -10z
m400 -336 c63 -22 166 -119 235 -221 45 -66 63 -83 117 -113 133 -72 232 -208
256 -352 10 -55 9 -76 -5 -134 -20 -78 -64 -157 -119 -211 l-37 -36 14 48 c21
68 7 113 -50 163 -61 53 -138 74 -275 75 -132 1 -250 -27 -376 -89 -106 -52
-202 -133 -233 -197 -36 -74 -20 -182 33 -226 49 -40 -39 -23 -118 23 -106 62
-176 205 -176 360 0 53 0 53 39 65 62 18 96 68 113 166 3 18 10 20 70 17 50
-3 77 1 111 16 50 22 67 45 67 90 0 27 3 30 44 34 55 7 160 57 203 97 44 41
83 105 83 136 0 37 -17 30 -31 -12 -28 -86 -170 -183 -268 -183 -42 0 -56 5
-83 29 -32 29 -33 32 -33 108 1 86 16 126 85 218 44 60 102 102 173 126 65 23
101 23 161 3z m-477 -362 c12 -15 25 -46 29 -69 5 -37 11 -44 39 -53 41 -13
61 -54 46 -93 -14 -37 -62 -59 -123 -55 l-51 3 -1 50 c-1 43 2 51 24 62 l25
13 -25 0 c-15 0 -31 -5 -36 -10 -7 -7 -21 -7 -42 1 -30 10 -32 14 -32 60 0 62
17 99 55 115 38 16 64 10 92 -24z m-239 -181 c31 -17 30 -67 -3 -93 -14 -11
-25 -24 -25 -30 0 -6 8 -4 18 5 23 21 33 21 77 0 39 -18 43 -35 21 -87 -17
-40 -60 -76 -93 -76 -37 0 -76 45 -71 81 4 25 0 33 -23 45 -46 23 -79 65 -79
100 0 70 95 99 178 55z m148 -15 c13 -22 14 -29 2 -53 -25 -52 -108 -37 -108
19 0 55 76 79 106 34z m872 -271 c64 -19 117 -64 132 -111 17 -50 -8 -112 -63
-159 -35 -30 -46 -35 -72 -29 -83 19 -146 -11 -179 -84 -18 -40 -19 -41 -130
-71 -153 -43 -273 -58 -325 -42 -110 33 -163 150 -112 249 55 107 246 218 446
258 84 16 228 11 303 -11z m258 -255 c36 0 -7 -92 -75 -160 -37 -37 -59 -50
-96 -58 -26 -6 -55 -9 -64 -7 -9 1 -58 8 -108 15 -57 8 -93 17 -93 24 0 27 59
103 90 116 28 12 37 11 82 -8 l50 -21 57 38 c31 22 63 47 71 56 10 12 22 15
43 11 16 -3 36 -6 43 -6z m-481 -267 c-4 -32 -9 -61 -11 -65 -2 -3 -27 5 -54
18 -40 19 -50 29 -50 48 0 21 8 27 48 39 76 24 75 24 67 -40z m148 28 c21 -5
41 -12 44 -14 10 -11 -22 -80 -39 -85 -22 -5 -22 -9 -3 -28 8 -9 15 -31 15
-49 0 -41 -29 -65 -77 -65 -60 0 -87 82 -63 193 11 57 11 57 48 57 20 0 54 -4
75 -9z m-298 -78 c-4 -38 -13 -74 -20 -81 -36 -38 -150 -20 -208 34 l-27 25
20 30 c17 23 29 29 58 29 20 1 66 7 102 14 36 8 69 14 73 15 5 0 6 -29 2 -66z
m88 -24 c49 -25 57 -35 57 -70 0 -15 10 -39 22 -54 21 -27 21 -28 3 -41 -37
-28 -112 -4 -99 31 4 9 -8 15 -35 20 -49 8 -59 20 -31 35 15 8 20 21 20 55 0
25 5 45 10 45 6 0 30 -10 53 -21z"/>
<path d="M7206 918 c-21 -30 -20 -66 4 -105 54 -90 144 -17 95 77 -27 52 -74
65 -99 28z"/>
<path d="M6637 768 c-25 -20 -37 -62 -27 -98 13 -45 28 -60 61 -60 60 0 75 75
28 141 -22 32 -37 36 -62 17z"/>
<path d="M6914 694 c-10 -8 -13 -12 -6 -9 8 4 26 11 40 15 22 7 23 8 6 9 -11
1 -29 -6 -40 -15z"/>
<path d="M6985 683 c4 -15 0 -25 -12 -32 -10 -6 -13 -11 -7 -11 22 0 36 27 24
47 -10 16 -10 16 -5 -4z"/>
<path d="M6895 657 c7 -17 42 -33 52 -23 4 3 0 6 -7 6 -7 0 -22 8 -32 17 -17
15 -18 15 -13 0z"/>
<path d="M7033 614 c-17 -19 -28 -34 -25 -34 9 1 45 31 61 53 23 29 -2 16 -36
-19z"/>
<path d="M6906 579 c3 -5 24 -9 46 -9 51 0 47 5 -10 13 -24 3 -40 1 -36 -4z"/>
<path d="M2620 2066 c0 -101 3 -128 16 -141 9 -9 19 -13 23 -9 3 4 0 9 -6 11
-10 3 -13 40 -13 134 0 79 -4 129 -10 129 -6 0 -10 -48 -10 -124z"/>
<path d="M2823 2135 c0 -33 2 -45 4 -27 2 18 2 45 0 60 -2 15 -4 0 -4 -33z"/>
<path d="M2980 2060 c0 -73 3 -131 6 -127 7 7 5 249 -2 256 -2 2 -4 -56 -4
-129z"/>
<path d="M3470 2053 c5 -128 6 -138 25 -141 19 -3 19 -2 3 11 -16 12 -18 32
-18 141 0 69 -3 126 -7 126 -5 0 -6 -62 -3 -137z"/>
<path d="M3755 2055 c0 -132 1 -140 20 -143 19 -3 19 -2 3 11 -14 11 -18 35
-21 143 l-3 129 1 -140z"/>
<path d="M4224 2060 c0 -74 1 -105 3 -67 2 37 2 97 0 135 -2 37 -3 6 -3 -68z"/>
<path d="M4858 2073 c4 -165 9 -173 11 -15 0 72 -2 132 -6 132 -5 0 -7 -53 -5
-117z"/>
<path d="M5227 2183 c-13 -12 -7 -58 9 -82 9 -13 41 -34 70 -47 35 -15 54 -30
55 -41 0 -11 3 -13 6 -5 7 19 -14 40 -62 61 -52 23 -80 61 -71 96 6 25 5 30
-7 18z"/>
<path d="M3070 2170 c0 -5 15 -10 34 -10 50 0 79 -28 87 -86 l6 -49 2 43 c1
52 -20 87 -61 101 -39 14 -68 14 -68 1z"/>
<path d="M3595 2170 l-40 -7 42 -2 c23 0 45 4 48 9 3 6 3 9 -2 9 -4 -1 -26 -5
-48 -9z"/>
<path d="M3840 2171 c0 -5 10 -11 22 -13 12 -2 28 -14 35 -28 12 -23 13 -23
13 -4 0 12 -6 26 -12 32 -20 15 -58 24 -58 13z"/>
<path d="M4345 2170 l-40 -7 42 -2 c23 0 45 4 48 9 3 6 3 9 -2 9 -4 -1 -26 -5
-48 -9z"/>
<path d="M4950 2171 c0 -6 13 -11 29 -11 17 0 42 -10 58 -24 23 -20 28 -32 27
-68 -1 -37 0 -40 9 -21 14 31 -2 82 -33 104 -31 23 -90 36 -90 20z"/>
<path d="M5191 2145 c-1 -32 32 -95 49 -95 5 0 10 -6 10 -13 0 -7 15 -21 33
-32 27 -16 30 -16 18 -2 -18 22 2 22 24 0 16 -16 17 -15 14 2 -3 11 -20 24
-45 32 -52 17 -85 52 -94 100 -7 35 -8 36 -9 8z"/>
<path d="M3070 2070 l0 -70 30 0 c40 0 70 31 70 73 0 42 -26 67 -68 67 l-32 0
0 -70z m78 38 c29 -29 1 -98 -40 -98 -15 0 -18 8 -18 48 0 27 3 52 7 55 10 11
38 8 51 -5z"/>
<path d="M3837 2120 c3 -11 14 -20 24 -20 12 0 19 7 19 20 0 14 -7 20 -24 20
-19 0 -23 -4 -19 -20z"/>
<path d="M4950 2070 l0 -70 28 0 c27 0 62 26 62 46 0 4 -7 -2 -16 -14 -8 -12
-24 -22 -35 -22 -16 0 -19 7 -19 55 0 52 1 55 25 55 13 0 29 -8 34 -17 6 -10
11 -13 11 -7 0 19 -36 44 -63 44 -27 0 -27 -1 -27 -70z"/>
<path d="M217 2123 c-25 -24 10 -69 61 -79 57 -11 85 39 40 70 -22 16 -89 22
-101 9z"/>
<path d="M1184 2085 c-4 -9 -1 -28 5 -43 8 -18 8 -38 2 -59 -10 -34 5 -63 33
-63 16 0 56 42 56 59 0 18 -68 121 -80 121 -6 0 -13 -7 -16 -15z"/>
<path d="M2779 1997 c59 -73 81 -95 81 -83 0 10 -121 151 -133 155 -6 2 17
-30 52 -72z"/>
<path d="M3560 2058 c0 -5 14 -8 30 -8 17 0 30 3 30 8 0 4 -13 7 -30 7 -16 0
-30 -3 -30 -7z"/>
<path d="M4310 2058 c0 -11 58 -10 64 0 3 5 -11 8 -29 8 -19 -1 -35 -4 -35 -8z"/>
<path d="M3840 2046 c0 -3 16 -32 36 -64 32 -55 64 -85 64 -62 0 6 -4 10 -9
10 -5 0 -26 27 -46 60 -33 54 -45 69 -45 56z"/>
<path d="M2718 1992 c3 -37 -1 -53 -18 -75 -27 -34 -53 -34 -79 -1 -12 15 -21
21 -21 15 0 -21 48 -61 74 -61 29 0 54 22 60 53 15 73 15 85 -2 100 -16 15
-17 12 -14 -31z"/>
<path d="M5200 2015 c-7 -9 -10 -18 -6 -22 3 -3 6 -1 6 6 0 6 10 16 23 21 15
6 17 9 6 9 -9 1 -22 -6 -29 -14z"/>
<path d="M1094 1973 c-23 -59 -94 -132 -163 -167 -85 -44 -171 -58 -306 -54
-119 5 -153 13 -291 69 -17 7 -39 9 -49 6 -15 -7 -16 -10 -3 -30 52 -80 337
-130 534 -92 43 8 79 13 80 12 2 -2 -11 -45 -28 -97 -16 -52 -33 -125 -36
-162 -3 -41 -9 -68 -16 -68 -6 0 -38 9 -71 19 -33 10 -85 22 -115 26 -33 5
-67 17 -85 31 -67 51 -134 72 -270 84 -72 6 -158 18 -193 26 -78 17 -82 17
-82 -1 0 -23 152 -54 272 -55 101 0 214 -34 247 -73 10 -13 9 -17 -6 -26 -14
-8 2 -10 63 -11 216 0 458 -144 559 -330 19 -36 35 -57 35 -47 0 26 18 21 71
-24 48 -40 72 -80 143 -242 l25 -57 40 6 c22 4 52 4 66 0 23 -6 25 -11 25 -65
0 -89 16 -158 59 -246 46 -97 101 -154 188 -197 56 -27 62 -33 46 -42 -10 -6
-49 -11 -88 -10 -62 0 -81 5 -165 45 -113 54 -229 143 -304 235 -75 91 -89
137 -80 257 4 62 3 101 -4 113 -9 15 -11 8 -12 -39 0 -69 -30 -159 -69 -207
-39 -48 -106 -67 -184 -50 -156 32 -624 305 -744 433 -88 95 -101 160 -48 252
29 51 55 75 129 119 33 20 53 36 45 36 -32 -1 -102 -42 -153 -90 -49 -47 -56
-50 -104 -50 -45 0 -52 -3 -52 -20 0 -17 7 -20 38 -20 l38 0 0 -62 c0 -73 15
-107 81 -185 l44 -52 -25 -16 c-24 -16 -27 -15 -64 15 -45 35 -112 52 -112 27
0 -9 13 -17 34 -21 19 -4 48 -20 65 -35 l31 -29 -21 -48 c-12 -27 -31 -60 -44
-74 -53 -60 -65 -87 -64 -142 1 -53 1 -53 10 -15 20 87 71 157 163 223 33 24
53 44 45 44 -8 0 -24 -7 -35 -15 -10 -8 -26 -15 -33 -15 -18 0 45 67 70 75 12
4 46 -13 96 -48 91 -63 225 -143 373 -221 113 -59 121 -69 100 -131 -16 -47
-28 -44 -32 8 -3 39 -4 36 -16 -33 -16 -92 -52 -168 -102 -221 -21 -22 -44
-54 -50 -70 -14 -34 -55 -69 -80 -69 -21 0 -60 41 -60 63 0 10 8 17 19 17 46
0 25 17 -35 28 -108 21 -290 127 -347 203 -23 33 -43 39 -27 10 17 -32 12 -41
-25 -41 -24 0 -35 -5 -35 -15 0 -12 13 -15 56 -15 50 0 60 -4 102 -39 26 -22
95 -63 153 -91 79 -37 108 -56 113 -73 9 -34 54 -77 82 -77 40 0 79 26 100 67
10 21 39 61 63 88 24 28 57 77 73 110 16 33 39 75 53 93 13 18 26 51 30 73 6
36 10 40 29 35 99 -26 128 -29 180 -17 43 9 63 21 90 51 l35 39 40 -72 c49
-90 95 -143 181 -212 181 -144 357 -197 480 -144 78 33 86 23 32 -43 -36 -44
-53 -58 -73 -58 -15 0 -32 -7 -39 -15 -16 -19 -5 -34 12 -17 14 14 54 16 63 3
8 -14 134 -9 139 6 3 7 23 17 46 23 39 10 43 10 61 -14 18 -23 27 -26 89 -26
68 0 69 0 123 50 62 56 70 58 172 32 67 -17 70 -20 73 -50 2 -18 8 -32 14 -32
5 0 7 7 4 16 -10 27 12 54 44 54 23 0 31 -5 36 -24 3 -14 3 -30 -1 -35 -3 -6
-1 -11 5 -11 35 0 16 76 -22 85 -21 5 -23 11 -20 59 l4 53 50 11 c69 17 82 15
106 -11 27 -29 38 -78 22 -107 -14 -27 -6 -37 16 -19 14 11 18 11 30 -5 8 -11
11 -30 8 -43 -5 -17 -2 -23 10 -23 24 0 22 72 -3 94 -10 10 -24 37 -30 60 -6
24 -17 49 -26 56 -37 31 -5 40 44 13 28 -16 33 -17 58 -3 53 30 34 110 -25
110 -14 0 -33 -7 -43 -16 -16 -14 -22 -13 -68 7 -28 12 -51 24 -51 28 0 4 20
25 44 48 88 83 156 217 156 309 0 32 2 34 33 34 33 0 34 0 59 -85 l26 -86 -44
-25 c-55 -33 -57 -48 -3 -29 23 8 49 15 58 15 16 0 101 -99 101 -117 0 -5 -16
-24 -35 -43 -53 -51 -42 -67 13 -21 27 23 53 41 59 41 6 0 37 -12 69 -26 33
-14 86 -32 119 -38 33 -7 60 -17 60 -23 0 -5 -28 -34 -62 -64 -34 -30 -76 -73
-95 -96 -18 -23 -45 -44 -60 -48 -29 -7 -78 -57 -78 -81 0 -25 38 -15 52 13 9
19 24 29 47 34 19 4 38 14 43 23 5 9 15 16 21 16 22 0 127 -71 127 -86 0 -25
37 -15 49 13 16 42 49 172 56 226 7 52 13 55 97 41 36 -6 38 -9 49 -61 10 -43
18 -57 36 -64 27 -10 149 -10 258 0 l70 6 10 52 c6 29 15 56 20 61 6 5 35 12
67 15 64 6 68 1 68 -83 0 -25 12 -84 26 -132 24 -78 30 -88 50 -88 15 0 22 5
19 13 -5 12 104 87 128 87 7 0 20 -9 30 -20 9 -11 28 -20 43 -20 19 0 28 -7
37 -30 7 -18 19 -30 29 -30 47 0 -6 85 -60 96 -16 3 -37 19 -50 39 -27 38
-137 146 -167 162 -27 16 -20 20 69 43 105 27 209 83 281 152 32 32 67 58 77
58 11 0 54 -16 97 -36 68 -31 81 -41 96 -74 33 -73 100 -124 193 -150 l43 -11
-44 -39 c-52 -46 -77 -93 -77 -144 0 -30 5 -38 26 -46 14 -6 28 -19 31 -30 5
-17 14 -20 73 -20 l67 0 6 68 c6 64 31 154 56 200 8 15 29 22 93 32 102 15
381 83 459 111 67 25 76 22 158 -55 54 -51 131 -158 131 -182 0 -32 -170 -95
-420 -154 l-75 -18 68 -1 c52 -1 102 9 210 40 78 23 160 50 181 61 45 23 74
15 101 -26 25 -38 11 -49 -52 -42 -53 6 -93 -4 -93 -24 0 -6 35 -10 78 -10 64
0 82 4 95 18 25 28 21 67 -11 99 -50 49 -57 115 -17 146 19 14 23 24 19 46 -4
18 0 32 10 40 21 18 20 33 -5 65 -27 35 -82 62 -142 71 l-48 7 46 50 c86 90
113 202 81 322 -18 65 -65 142 -109 176 -24 19 -25 24 -20 98 4 56 1 94 -11
134 -23 80 -88 172 -144 206 -42 24 -57 27 -137 27 -55 0 -104 -6 -125 -14
-104 -43 -171 -120 -191 -222 l-11 -58 -51 55 c-59 65 -89 82 -164 94 -75 12
-165 -10 -243 -61 -100 -64 -137 -147 -128 -284 4 -66 3 -75 -12 -75 -14 0
-20 16 -30 76 -16 100 -42 175 -80 227 -27 38 -29 46 -20 77 12 43 13 117 1
124 -5 3 -12 36 -16 73 -8 80 -31 183 -50 230 -11 26 -20 33 -43 33 -43 0
-128 -28 -215 -71 l-78 -38 -57 58 c-52 53 -62 58 -112 64 -81 10 -113 -17
-156 -132 l-21 -56 -169 -6 -169 -5 -40 38 c-45 45 -163 120 -217 139 -34 12
-41 11 -65 -7 -37 -27 -67 -73 -95 -142 -18 -46 -23 -77 -23 -162 l0 -105 -52
-78 c-78 -117 -122 -274 -123 -438 0 -61 -2 -67 -22 -73 -35 -9 -35 -9 -43 39
-10 70 -42 154 -82 219 l-36 59 24 20 c13 11 31 24 39 31 41 30 41 35 16 217
-49 348 -58 432 -47 438 6 4 -5 15 -24 25 -43 23 -4 53 -343 -264 -165 -155
-157 -142 -137 -222 6 -25 6 -25 -76 -32 -110 -10 -236 -48 -336 -101 l-81
-43 -12 49 c-14 56 -4 52 -215 93 -107 20 -375 66 -389 66 -2 0 -7 16 -10 35
-7 34 -44 65 -79 65 -30 0 -67 -41 -67 -74 0 -49 24 -76 68 -76 37 0 37 0 63
-73 15 -39 38 -102 52 -138 l26 -67 -55 33 c-34 20 -67 51 -84 77 -15 24 -46
60 -68 82 l-40 38 5 97 c5 80 2 109 -17 176 -12 44 -26 95 -30 112 -14 57 6
104 75 177 85 90 121 185 73 194 -11 2 -21 -11 -34 -45z m3045 -228 c56 -28
121 -127 121 -182 0 -16 -45 -32 -61 -22 -8 5 -25 9 -38 9 -63 0 -84 -82 -31
-120 17 -12 30 -30 30 -41 0 -26 -57 -50 -121 -51 -88 0 -106 35 -85 161 38
215 96 293 185 246z m456 -77 c9 -33 19 -84 22 -113 l6 -52 -89 -5 c-83 -5
-91 -3 -110 18 -12 12 -44 30 -72 40 -55 20 -70 44 -45 70 38 37 232 118 259
107 7 -2 19 -32 29 -65z m-1186 19 c29 -17 77 -58 107 -91 l53 -58 82 11 c87
12 210 14 244 5 18 -5 20 -13 20 -104 0 -90 2 -100 24 -124 30 -32 87 -40 167
-23 l61 13 38 -33 c21 -18 53 -35 72 -39 28 -5 37 -14 54 -55 22 -51 77 -108
107 -110 59 -4 111 26 162 94 19 26 40 47 47 47 33 1 97 -167 91 -241 l-3 -43
-68 -16 c-76 -19 -122 -49 -52 -34 22 4 60 8 85 9 l45 0 -3 -45 c-4 -85 -7
-90 -56 -90 -25 0 -52 -3 -61 -6 -27 -11 3 -24 53 -24 l44 0 -7 -32 c-4 -18
-15 -46 -24 -63 -16 -28 -21 -30 -70 -28 -38 2 -51 -1 -48 -10 2 -6 18 -13 35
-15 40 -4 41 -22 1 -61 -64 -64 -185 -119 -339 -152 -78 -17 -143 -22 -358
-26 -349 -7 -565 16 -651 68 l-34 20 29 30 c32 33 16 39 -27 9 -34 -25 -55
-17 -94 34 -37 48 -33 62 23 80 l47 16 -63 -6 c-61 -5 -62 -4 -73 23 -6 15
-15 50 -22 76 -13 59 -5 67 71 67 33 0 51 4 47 10 -3 6 -35 10 -69 10 l-64 0
-6 43 c-10 62 10 216 37 290 33 89 71 151 133 216 58 59 67 82 32 78 -22 -2
-23 2 -26 71 -4 91 16 164 59 215 28 34 36 38 63 33 17 -4 55 -21 85 -39z
m-2460 -113 c1 -12 -6 -27 -14 -34 -13 -11 -15 -6 -15 32 0 25 3 48 7 52 9 8
21 -20 22 -50z m3407 -59 c58 -24 80 -103 48 -171 -19 -40 -59 -64 -106 -64
-124 0 -142 184 -24 236 39 17 40 17 82 -1z m-171 -5 c10 -17 -23 -60 -40 -54
-15 6 -21 45 -8 57 10 11 41 8 48 -3z m-3195 -46 c0 -19 -4 -34 -10 -34 -5 0
-10 18 -10 41 0 24 4 38 10 34 6 -3 10 -22 10 -41z m4834 2 c75 -31 157 -152
172 -254 23 -153 -91 -277 -266 -290 -135 -9 -219 46 -260 171 -33 101 -26
195 18 265 36 55 78 87 145 108 56 17 150 17 191 0z m-4944 -15 c0 -6 -4 -13
-10 -16 -5 -3 -10 1 -10 9 0 9 5 16 10 16 6 0 10 -4 10 -9z m3734 -5 c24 -10
36 -23 40 -44 12 -53 -41 -166 -113 -242 -30 -32 -45 -40 -74 -40 -44 0 -80
29 -101 83 -14 35 -14 38 6 57 25 23 37 24 72 8 22 -9 29 -8 46 7 31 28 26 76
-10 108 -34 31 -38 51 -12 66 25 15 107 13 146 -3z m-3621 -66 c-3 -11 -9 -20
-14 -20 -10 0 -12 33 -3 43 12 12 22 -3 17 -23z m3485 -58 c2 -14 -2 -22 -12
-22 -19 0 -29 17 -22 36 8 22 30 12 34 -14z m783 -13 c95 -48 168 -190 156
-304 -15 -150 -144 -259 -307 -260 -62 0 -83 4 -120 25 -95 53 -146 164 -138
299 5 83 20 119 69 169 90 91 240 122 340 71z m-2998 -283 c94 -39 124 -160
56 -222 -10 -9 -19 -27 -19 -39 0 -30 -40 -42 -47 -14 -3 10 -9 19 -13 19 -5
0 -6 -8 -3 -19 7 -27 -14 -35 -23 -9 l-8 23 -6 -25 c-7 -28 -40 -41 -40 -16 0
12 -10 16 -36 16 -123 0 -170 158 -72 246 58 53 143 69 211 40z m3784 -28 c83
-86 110 -229 64 -335 -29 -65 -121 -155 -193 -188 -73 -33 -222 -75 -226 -64
-2 6 33 48 77 95 74 77 90 104 59 104 -6 0 -60 -49 -121 -110 -125 -126 -95
-120 -286 -59 -87 28 -127 37 -134 30 -17 -17 18 -36 126 -67 54 -15 100 -31
102 -34 11 -18 -164 -45 -285 -45 -116 0 -129 2 -176 27 -107 56 -150 153
-142 317 2 50 7 93 10 96 3 4 30 -6 60 -21 44 -23 66 -28 133 -28 71 -1 88 3
153 33 55 26 83 47 112 84 34 42 47 72 77 176 2 9 16 -1 40 -29 20 -23 60 -53
87 -66 115 -54 296 -14 390 85 17 17 33 31 36 31 3 0 20 -15 37 -32z m-1176
-148 c24 -44 25 -53 16 -90 -12 -44 -17 -45 -81 -20 -24 9 -25 12 -20 77 7 89
8 91 36 86 15 -3 32 -21 49 -53z m-2291 -76 c64 -29 113 -73 143 -129 30 -56
31 -175 1 -225 -42 -73 -181 -144 -384 -197 -73 -20 -128 -26 -240 -30 l-145
-5 -46 30 c-55 35 -88 96 -96 174 -9 95 54 213 143 269 35 21 38 21 158 9 68
-7 129 -10 137 -7 8 4 55 39 104 77 85 67 92 70 130 64 22 -3 65 -17 95 -30z
m2251 -74 l36 -10 6 -73 c3 -39 8 -80 12 -89 6 -14 -9 -11 -71 18 -44 20 -81
37 -83 40 -8 7 42 124 53 124 6 0 27 -5 47 -10z m1316 -263 c49 -26 58 -43 39
-72 -13 -20 -14 -30 -6 -46 10 -17 7 -24 -15 -45 l-26 -24 -26 32 c-15 18 -57
63 -94 100 -37 37 -64 70 -60 74 11 11 157 -3 188 -19z m-3232 -161 c0 -52
-63 -62 -73 -12 -7 33 6 47 40 44 29 -3 33 -7 33 -32z m1115 -10 c0 -14 -4
-36 -10 -50 l-10 -26 -139 0 c-154 0 -151 -1 -164 68 l-6 32 164 0 165 0 0
-24z m1220 9 c0 -3 -7 -22 -15 -42 -13 -30 -45 -184 -45 -213 0 -4 -16 -7 -35
-8 -31 -1 -37 3 -49 33 -8 19 -22 35 -30 35 -48 0 11 106 86 158 53 36 88 50
88 37z m-1764 -65 c-7 -61 -23 -118 -37 -134 -9 -11 -98 40 -106 60 -9 23 108
134 140 134 6 0 7 -23 3 -60z m807 38 c45 -30 107 -90 107 -103 0 -6 -25 -25
-56 -44 -64 -38 -67 -37 -84 42 -11 52 -14 127 -4 127 3 0 20 -10 37 -22z"/>
<path d="M4348 859 c-42 -24 -27 -131 19 -137 50 -7 71 103 26 135 -20 15 -23
15 -45 2z"/>
<path d="M3366 844 c-10 -9 -16 -33 -16 -59 0 -47 19 -75 50 -75 39 0 55 85
24 128 -18 26 -37 28 -58 6z"/>
<path d="M3816 669 c-14 -11 -26 -29 -26 -39 0 -24 46 -60 76 -60 30 0 77 18
86 33 15 23 8 56 -14 71 -32 23 -90 20 -122 -5z m108 -5 c19 -7 21 -45 4 -62
-7 -7 -30 -12 -53 -12 -43 0 -65 13 -65 40 0 9 5 21 12 28 13 13 75 16 102 6z"/>
<path d="M5546 1209 c-50 -39 -27 -122 39 -135 66 -12 124 51 96 105 -28 51
-90 65 -135 30z"/>
<path d="M5255 1142 c-64 -13 -87 -93 -39 -137 35 -32 78 -32 109 0 58 57 9
153 -70 137z"/>
<path d="M2253 904 c-10 -27 14 -66 39 -62 29 4 35 34 12 59 -21 23 -42 25
-51 3z"/>
<path d="M2066 855 c-17 -46 10 -89 40 -65 23 20 15 74 -12 78 -13 2 -24 -4
-28 -13z"/>
<path d="M2590 730 c0 -5 -22 -30 -50 -56 -27 -26 -50 -53 -50 -61 0 -28 41
-94 65 -105 34 -15 72 3 81 38 4 14 1 45 -7 67 -7 23 -13 53 -12 67 1 14 0 19
-3 13 -11 -26 -26 -13 -19 17 4 17 4 30 1 30 -3 0 -6 -4 -6 -10z"/>
<path d="M1886 546 c3 -8 12 -17 20 -20 8 -3 14 -10 14 -17 0 -6 -7 -8 -17 -5
-16 6 -16 6 0 -12 9 -10 17 -23 17 -28 0 -24 22 -85 36 -99 23 -23 70 -19 88
7 18 25 21 74 7 112 -8 20 -21 27 -68 36 -32 7 -68 18 -80 26 -19 12 -22 12
-17 0z"/>
<path d="M2288 439 c-27 -15 -23 -57 6 -65 33 -8 66 12 66 40 0 33 -37 46 -72
25z m60 -25 c-4 -20 -40 -35 -58 -24 -23 14 -3 40 30 40 24 0 31 -4 28 -16z"/>
<path d="M2372 353 c-20 -22 -30 -25 -68 -20 -24 2 -44 3 -44 2 0 -2 16 -12
36 -24 63 -38 114 -20 114 40 0 35 -7 35 -38 2z m28 -17 c0 -10 -33 -36 -46
-36 -21 0 -17 16 9 28 24 12 37 14 37 8z"/>
<path d="M5217 1992 c-24 -36 32 -82 102 -82 42 0 91 17 91 32 0 12 -12 9 -34
-7 -46 -35 -142 -7 -148 42 -2 19 -6 24 -11 15z"/>
<path d="M3100 1930 l-55 -7 57 -1 c31 -1 60 3 63 8 3 6 3 9 -2 8 -4 -1 -33
-4 -63 -8z"/>
<path d="M4970 1930 l-55 -7 57 -1 c31 -1 60 3 63 8 3 6 3 9 -2 8 -4 -1 -33
-4 -63 -8z"/>
<path d="M4290 1922 c0 -9 98 -7 107 2 4 3 -19 6 -50 6 -31 0 -57 -3 -57 -8z"/>
<path d="M0 1820 c0 -49 0 -49 40 -61 43 -13 97 -3 135 25 16 12 18 18 9 33
-9 14 -22 17 -63 15 -39 -3 -61 2 -86 17 l-35 20 0 -49z"/>
<path d="M514 915 c-9 -23 12 -42 53 -48 23 -4 47 -18 65 -37 31 -34 63 -37
82 -8 8 13 7 21 -3 30 -10 11 -12 9 -9 -7 2 -15 -3 -21 -22 -23 -19 -2 -32 5
-48 28 -15 20 -31 30 -50 30 -36 0 -56 14 -49 34 4 9 2 16 -4 16 -5 0 -12 -7
-15 -15z"/>
<path d="M5669 320 c-31 -31 -32 -31 -79 -19 -57 14 -80 8 -80 -23 1 -34 33
-92 52 -96 11 -2 32 12 52 34 33 36 34 36 57 20 57 -39 90 -6 72 71 -11 49
-35 53 -74 13z"/>
<path d="M2650 187 c0 -2 18 -38 40 -81 22 -42 40 -84 40 -92 0 -7 7 -14 16
-14 13 0 15 6 9 28 -9 35 -52 122 -72 145 -14 15 -33 23 -33 14z"/>
<path d="M3566 147 c-34 -34 -34 -80 -1 -112 31 -32 69 -32 100 0 47 46 23
118 -42 131 -26 5 -37 1 -57 -19z m88 -23 c18 -17 18 -20 10 -50 -13 -48 -88
-48 -100 0 -13 55 50 90 90 50z"/>
<path d="M4080 157 c-52 -26 -51 -109 1 -134 32 -16 84 -1 99 27 36 67 -33
142 -100 107z m82 -42 c15 -34 -12 -75 -50 -75 -34 0 -52 16 -52 46 0 53 80
76 102 29z"/>
<path d="M7295 150 c-6 -10 5 -16 40 -22 11 -2 24 -15 29 -30 7 -21 5 -31 -12
-53 -26 -33 -28 -45 -7 -45 8 0 15 5 15 10 0 6 11 22 25 36 l26 26 -23 41
c-19 34 -29 42 -55 44 -18 2 -35 -2 -38 -7z"/>
<path d="M2976 89 c-38 -16 -71 -31 -73 -33 -2 -2 8 -16 22 -30 24 -24 33 -26
105 -26 88 0 81 -9 59 83 -12 45 -20 45 -113 6z"/>
<path d="M7650 20 l-25 -20 28 0 c20 0 27 5 27 20 0 24 1 24 -30 0z"/>
</g>
</svg>
