<svg id="Layer_1" data-name="Layer 1" xmlns="http://www.w3.org/2000/svg" viewBox="0 0 1266.67 1376.15"><defs><style>.cls-1{fill:#fefefe;}.cls-2{fill:#fff;}.cls-3{fill:#1d77bd;}.cls-4{fill:#ec1d33;}.cls-5{fill:#07090a;}.cls-6{fill:#fbd901;}</style></defs><title>6</title><path d="M733.69,1465.87c-5.31-1.81-11-1.8-16.39-2.88-36.9-7.3-68.57-23.58-92.32-53.52a81.39,81.39,0,0,1-6.09-8.59c-1.31-2.18-2.93-2.92-5.39-3.16-39.65-3.72-78.55-11-116.08-24.72-24.71-9-48-20.78-69-36.71a9,9,0,0,0-5.24-1.86c-24.09-1.29-48.19-2.4-72.26-4.07s-48.32-4.12-71.89-10.33c-12.53-3.3-24.68-7.56-35.73-14.46-12.58-7.85-22.43-18.11-26.64-32.66-6.3-21.76-.56-50,25.66-66,10.64-6.48,22.34-9.9,34.62-11.66,6.68-1,13.38-.87,20.09-1,1.72,0,3.5.39,5.37-.45-1.72-13.34-1.24-26.69.3-40.05a214.64,214.64,0,0,1,17.87-64.29c7.17-15.83,13.26-32.13,21.33-47.57,12.58-24.09,27.62-46.34,47.28-65.28,15.68-15.11,33.37-27.15,53.67-35.21.59-.24,1.15-.52,2.27-1-4.61-1.51-8.77-2.86-12.93-4.25-37.66-12.58-73.49-29-106.42-51.35a333.85,333.85,0,0,1-43.93-35.52c-3.44-3.31-3.45-3.31-7.81-.78a597,597,0,0,0-75.81,52.74c-5,4-9.71,8.33-14.75,12.25a10.07,10.07,0,0,1-16.32-6.09c-.76-4.16,1-7.41,4.09-10.13q12.7-11,26-21.21a632.1,632.1,0,0,1,63.23-43.2c1.06-.64,2.32-1,3.07-2.19-.43-1.45-1.62-2.32-2.52-3.38a329.92,329.92,0,0,1-45.31-69.12c-.14-.29-.24-.6-.38-.88-1.66-3.33-1.67-3.36-5.27-2.45q-36.37,9.17-71.76,21.64c-.9.31-1.79.66-2.71.92a10.12,10.12,0,0,1-12.46-6.12,9.86,9.86,0,0,1,5.43-12.73c3.19-1.42,6.54-2.46,9.85-3.59,20.94-7.17,42.16-13.4,63.53-19.12,3.28-.88,3.33-.92,2.15-3.91a442.15,442.15,0,0,1-21.55-72.37c-1.15-5.47-2.19-11-3.21-16.45-.64-3.42-.59-3.51-4.15-3.27q-6,.39-11.93,1.06a539.06,539.06,0,0,0-89.53,17.36c-5.73,1.65-9.3.26-12.62-4.84a5.5,5.5,0,0,0-1.85-2.12v-4.8A15.46,15.46,0,0,0,61,644.36c1.6-3,4.17-4.56,7.4-5.53a484.73,484.73,0,0,1,47.84-11.38c14.42-2.78,28.95-4.81,43.54-6.48,4.91-.57,9.86-1,14.8-1.18,2.13-.08,2.69-.79,2.65-2.82-.14-7.19-.27-14.39-.13-21.58.83-42.46,8.51-83.75,21.6-124.09a452.58,452.58,0,0,1,30.53-72.16c1.59-3,1.47-5.3.14-8.36a251.43,251.43,0,0,1-17.76-62.92,255.56,255.56,0,0,1-2.77-47.78c1.44-42.07,13.33-81,35.26-116.9,3.16-5.17,6.64-10.15,10-15.21a23.8,23.8,0,0,1,12.74-9.63,123.77,123.77,0,0,1,31.39-6c30.68-2,60.37,3.39,89.62,12,31.57,9.29,61.63,22.31,90.75,37.52a29.2,29.2,0,0,0,20.75,2.59c21.2-4.62,42.59-8.13,64.09-11A749.93,749.93,0,0,1,683,167a353,353,0,0,1,36.32,2.54c2.59.33,3.68-.61,4.73-2.69a163.94,163.94,0,0,1,22.49-33.82c13-15,28.44-26.68,47.76-32.2,30.16-8.62,57.75-2.8,82.65,16,14,10.54,24.8,23.89,34.19,38.52.84,1.31,1.4,2.84,2.79,3.93,1.71-.63,2.75-2.12,4-3.26,24.81-22.21,52.09-40.52,83.18-52.85a183.91,183.91,0,0,1,52.27-12.76c11.58-1,23.3-1.61,34.71,2,12.38,3.87,22.55,11.06,31,20.75,11.11,12.7,18.36,27.58,24,43.3,6.84,19.16,11,39,13.76,59.1a392.65,392.65,0,0,1,3.72,41.5c.07,2.27,1.08,3,2.87,3.62,27.22,9.67,40.63,30,44.23,57.73,2.84,21.83-1.17,42.93-7.33,63.76a190.48,190.48,0,0,1-28.62,57.59c-1.77,2.46-1.8,4.24-.48,6.81,14.88,29.07,24.32,59.91,29.75,92.05,1.68,9.93,3,19.89,3.81,29.93a2.47,2.47,0,0,0,.63,1.81c7.55-.56,15.17-1.14,22.79-1.69a345.85,345.85,0,0,1,55.56.4,214.47,214.47,0,0,1,33.46,5.62c8.66,2.16,9.53,7.17,8.15,14.06-.69,3.48-3.75,5.43-7.33,6a14,14,0,0,1-5.72-.3c-26.15-6.49-52.7-7.39-79.45-5.81-7.81.46-15.61,1-23.39,1.87-2.61.28-3.49,1.18-3.32,3.79.67,10.23-.06,20.45-.54,30.66a416.94,416.94,0,0,1-6.26,54.22,13.18,13.18,0,0,0-.41,5.36c6.15.77,12.3,1.5,18.45,2.32a685.73,685.73,0,0,1,71.91,13.26c7,1.7,9.91,8.93,7.56,14-2.14,4.57-6.75,7.17-11.78,5.94q-15.55-3.82-31.28-6.8c-13.32-2.51-26.68-4.72-40.15-6.34-5.07-.61-10.12-1.34-15.2-1.83-4.33-.42-4.33-.3-5.37,3.75-2.37,9.27-5,18.46-8.06,27.54a319.4,319.4,0,0,1-24.53,55.5c1,1.78,3,1.82,4.55,2.43A497.62,497.62,0,0,1,1252,838a32.72,32.72,0,0,1,3.18,2.14,9.89,9.89,0,0,1,2.28,13.31,10.11,10.11,0,0,1-13,3.71,45,45,0,0,1-4.51-2.72,468.84,468.84,0,0,0-86.84-42.94c-3.78-1.42-3.83-1.43-5.83,1.49-27.75,40.51-64.12,71.28-107,94.64-24.86,13.53-44.41,21.66-81,33.81.32,1.39,1.54,1.3,2.55,1.59a198.21,198.21,0,0,1,36.73,14.7c5.7,2.94,11.66,5.12,18.16,5.48a28.7,28.7,0,0,0,13-2.38,78.22,78.22,0,0,1,36.39-6.4c19.72,1.38,35.36,14.5,39.7,33.75a36.8,36.8,0,0,1,1,6.13,58.25,58.25,0,0,0,7.43,25c2.51,4.63,4.89,9.35,7.76,13.75,9.86,15.09,11.12,31.22,6.52,48.24-4.16,15.39-9.94,29.93-20.07,42.53-3.79,4.72-6.79,10.06-10.41,14.93-1.52,2.05-1.45,3.35.12,5.31a189,189,0,0,1,19.53,30.09,208.69,208.69,0,0,1,21.91,68,234.87,234.87,0,0,1,1.7,55.44c-2.24,24.3-8.33,47.46-21.29,68.4-17.44,28.19-42.77,46-74.15,55.58a155.87,155.87,0,0,1-44.76,6.93c-6.22,0-12.4.59-18.66.12a133.7,133.7,0,0,1-48.07-13.28,160.64,160.64,0,0,1-33.65-21.85l-5.31-4.46c-5.57,6.29-11,12.49-17,18.2-29.74,28.35-65.06,46.13-104.86,55.43-5.87,1.37-12,1.41-17.81,3.16Z" transform="translate(-59.26 -89.72)"/><path class="cls-1" d="M1155.61,460.9A210.91,210.91,0,0,1,1166.28,486a317.77,317.77,0,0,1,17.51,77.3c.25,2.54.52,5.08.84,7.62.26,2.05-.62,2.57-2.63,2.88a638.47,638.47,0,0,0-79.27,17.31,25.79,25.79,0,0,0-4,1.45,9.94,9.94,0,0,0-5.19,12.47,9.72,9.72,0,0,0,11.86,6.27c13.5-3.72,27-7.3,40.73-10.31,12.13-2.67,24.36-4.85,36.6-7,2.83-.5,3.14-.22,3.17,3,.1,10.39,0,20.78-.71,31.15a446.63,446.63,0,0,1-6.28,50.36c-.74,4-.69,4-4.71,3.81-16.91-.94-33.8-2.32-50.75-2.14-2.08,0-4.12,0-6.08.92a10.1,10.1,0,0,0,2.9,19.13,21.08,21.08,0,0,0,2.87.08c15.67-.13,31.29,1.14,46.92,2,3.62.19,3.73.29,2.76,4a334,334,0,0,1-14.25,43.13,282.19,282.19,0,0,1-15.88,32.68c-2.06,3.6-2.07,3.64-5.74,2.44a381.69,381.69,0,0,0-48-12.49c-2-.39-4.06-.81-6.1-1.15a10,10,0,0,0-11.56,7.6c-1.24,5.64,1.74,10.8,7.43,12,8.71,1.86,17.48,3.48,26.11,5.74,8.11,2.11,16.19,4.29,24.44,7.08a234.62,234.62,0,0,1-21.4,26.9c-28.58,31.23-63,54.15-101.36,71.62-29.65,13.51-60.54,23.28-92.22,30.7-20.18,4.72-40.55,8.38-61,11.28-15.63,2.2-31.35,3.79-47.08,5.23-46.07,4.22-92.24,4.44-138.43,3.44-19.78-.43-39.55-1.68-59.3-3.35-14.15-1.2-28.3-2.53-42.37-4.34-25-3.21-49.78-7.43-74.34-13.09-34.05-7.84-67.2-18.31-99-32.77-33.49-15.22-64.37-34.46-91.54-59.41-1.16-1.06-2.63-1.86-3.22-3.68,17.35-8.47,35.16-15.66,54.18-19.49,1.41-.28,2.84-.51,4.21-.91a9.89,9.89,0,0,0,7.06-11.92,10,10,0,0,0-11.54-7.62c-14.36,2.4-28.11,6.9-41.59,12.25-8.14,3.23-16.11,6.87-23.92,10.84-3.81,1.94-3.86,1.93-6.72-1.31a301.9,301.9,0,0,1-38-54c-2.54-4.6-4.93-9.28-7.5-14.14,4.53-2,9.17-2.28,13.64-3.2a444.55,444.55,0,0,1,46.37-6.61c6-.59,10-5,9.61-10.44a10.13,10.13,0,0,0-11.08-9.54c-9.22.6-18.42,1.67-27.57,3.09-12.43,1.92-24.83,4.07-37.06,7-2.69.66-3.17-1-3.94-2.85A390.31,390.31,0,0,1,208,679q-4.86-18.25-8.2-36.88c-.17-.93-.24-1.88-.4-3.16a257.55,257.55,0,0,1,25.94.23,300.73,300.73,0,0,1,31.38,3.45c7.06,1.25,14.08,2.63,21,4.48a16.16,16.16,0,0,0,5.65.81,9.89,9.89,0,0,0,9.06-8.46c.66-5-1.72-9.46-6.5-11a160.92,160.92,0,0,0-15.75-3.9,294.28,294.28,0,0,0-62.8-5.89c-1.76,0-3.52,0-5.28,0-4.61,0-4.62,0-4.73-4.67C196.29,566.45,204,520.22,219,475.12a472.32,472.32,0,0,1,23.21-56.63,104.73,104.73,0,0,1,11.38-17.66c10.64-14,22.1-27.34,33.69-40.56,1.79-2,3.72-4,4.21-6.82a10.08,10.08,0,0,0-5.07-10.95,9.91,9.91,0,0,0-11.89,1.8c-4.49,4.77-8.72,9.79-13,14.76-5.08,5.93-10.08,11.93-15.37,18.2-2.06-3.38-3-6.86-4.1-10.21-9.83-29.21-14.36-59.21-12.71-90,2.26-42.38,16.06-80.79,40.18-115.61a11,11,0,0,1,6.34-4.63,110.61,110.61,0,0,1,24.93-4.23c29.73-1.58,58.37,4.22,86.57,13,29,9,56.62,21.29,83.56,35.2,8.59,4.44,17.6,6.53,27.27,4.64,4.22-.83,8.42-1.7,12.63-2.55q23.91-4.8,48-8.24c15.95-2.29,32-4.17,48-5.34,26.94-1.95,53.91-3.1,80.94-1.57,8.44.48,16.88,1,25.28,1.55.55,1.48-.32,2.61-.76,3.74-10.21,26.47-16.79,53.85-21,81.86-2.41,16-3.93,32-2.69,48.22,1.08,14,3.86,27.51,10,40.19,11.2,23.15,29.83,36.9,54.68,42.44,15.28,3.41,30.73,2.93,46.21,1.37a201,201,0,0,0,68.14-19.27c2.74-1.33,3.34.29,4.44,1.8a94.93,94.93,0,0,0,39,31.54c21,9.19,42.53,10.26,64.55,4.55,3.39-.87,3.42-.91,4.8,2.28,7.34,17,16.7,32.7,29.66,46.06,14.19,14.63,30.84,25,50.85,29.91,17.91,4.37,34.73,2.15,50.83-6.73,15.45-8.52,28.37-20.07,40.27-32.91.87-.94,1.72-1.89,2.6-2.82A4.87,4.87,0,0,1,1155.61,460.9Z" transform="translate(-59.26 -89.72)"/><path class="cls-2" d="M924.29,1252.32c-1.53,55.69-21.59,105-64.38,144.22-25.72,23.55-56.11,38.75-90,46-44.46,9.56-94.8-7.57-123.28-39-14.2-15.68-22.78-34.07-27.09-54.63-3.83-18.22-3.53-36.47-.82-54.8,3.74-25.33,9.61-50.11,19-74,8.61-22,19.75-42.54,35-60.69,23.54-28,53.11-45.79,89.24-52.57a167.83,167.83,0,0,1,48.14-2.43c38.64,4,68.48,22.75,89.45,55.4,11.91,18.53,18.81,39,22.31,60.66C923.4,1230.45,923.88,1240.48,924.29,1252.32Z" transform="translate(-59.26 -89.72)"/><path class="cls-3" d="M606.29,1376.58c-16.67-1.82-32.55-4.29-48.3-7.59-24.39-5.11-48.22-12-71.06-22.13-22.35-9.89-43.05-22.36-60.85-39.31a128.81,128.81,0,0,1-16.44-18.66c2.13-1.47,4.44-1.39,6.55-1.93a89.83,89.83,0,0,0,34.18-16.61c2.4-1.89,4.42-2.06,7.38-1.45,19.73,4,37.81.77,53-13.33,8.66-8.06,13.08-18.43,14.69-30,1.85-13.27,1.71-26.48-2.94-39.27-.7-1.92-.11-3.41.51-5,4.2-10.87,8.82-21.57,13.76-32.13,11.1-23.76,20.63-48.11,26.73-73.69,3.84-16.13,5.59-32.47,4-49-2.17-22.86-9.22-44-23.63-62.26a1.9,1.9,0,0,1-.64-2c2.93-.52,5.85.57,8.72,1,18.79,2.81,37.7,4.52,56.61,6.23a6.45,6.45,0,0,1,5.56,3.56c11.09,18.1,24.27,34.49,40.45,48.33,16.9,14.45,35.94,24.73,57.83,29.4,13.41,2.85,26.9,3.08,40.5,1.83a125.36,125.36,0,0,0,31.26-6.58c28.46-10.27,44.45-31,50.22-60.18a101.94,101.94,0,0,0,2.08-16.61c.06-2,.43-3.06,2.88-3.34,12.83-1.46,25.63-3.19,38.33-5.56,4.75-.88,4.8-.83,7.07,3.27A966,966,0,0,1,933,1064.75c.3.74.49,1.52.78,2.41-2.11,1.18-4.48,1.39-6.7,2-20.12,5.63-37.34,16.25-52.5,30.43-3.84,3.59-3.83,3.57-8.62,1a132.93,132.93,0,0,0-48.86-15.69c-44.89-5-86.72,3.41-124.47,28.92-23.48,15.85-41.43,36.89-55.71,61.17-16.44,27.94-26.89,58.15-33.65,89.73a307.89,307.89,0,0,0-6.7,46.4,158.58,158.58,0,0,0,8.81,62.69C605.63,1374.55,605.86,1375.3,606.29,1376.58Z" transform="translate(-59.26 -89.72)"/><path class="cls-2" d="M907.67,1372.43c4.34-6.86,8.51-13.64,12.14-20.73a220.47,220.47,0,0,0,23.26-77.45c3.73-34.09,0-67.23-12.9-99.11-9.11-22.54-22.5-42.18-40.92-58.23a11.45,11.45,0,0,0-1.85-1.09,62.51,62.51,0,0,1,9.24-8.41c12.44-9.83,26.22-16.85,41.87-20a87.09,87.09,0,0,1,38,1c70.44,16.78,125.55,72.82,140.65,143.56,6.4,30,7.14,60.26-.61,90.21-11.1,42.86-38.64,69.67-81.14,81.37-17.74,4.87-35.91,6-54.1,4.62-17.4-1.35-33.42-7.67-48.36-16.63A143.86,143.86,0,0,1,907.67,1372.43Z" transform="translate(-59.26 -89.72)"/><path class="cls-4" d="M779.59,387.73a81.73,81.73,0,0,1-27.82-3.39c-20.69-6.43-33.09-20.83-39.07-41.22-4.47-15.26-5-30.91-3.58-46.57a361,361,0,0,1,11.09-61.66c6-22.59,13.74-44.54,25.39-64.94,7.41-13,16.19-24.91,27.68-34.66,13.4-11.35,28.79-17.7,46.42-17.82,15.47-.1,29.5,4.71,42.11,13.68C874.24,140,884,151.35,892.28,164c15,22.93,24.87,48.14,32.7,74.25.71,2.4,0,3-2.15,3.6A90.48,90.48,0,0,0,905.12,249c-3.23,1.72-3.28,1.68-5.62-1.44a58.53,58.53,0,0,0-35-22.6C835,218.35,800,236.13,795,273.33c-1.34,9.91-1.49,19.75,1.18,29.46,3.48,12.72,11.09,22.51,21.75,30,10.07,7.12,21.4,11.4,33.31,14.07,3.11.69,4.09,2,4.52,4.93a56.54,56.54,0,0,0,3.79,13.82c1.13,2.64.21,3.61-2,4.63A189.47,189.47,0,0,1,813,384.64,160,160,0,0,1,779.59,387.73Z" transform="translate(-59.26 -89.72)"/><path class="cls-2" d="M352.34,1067.72c54.37,26.25,108.81,51.91,162.55,79.23.35,1.47-.75,2.61-1.3,3.85-4.08,9.18-7.75,18.52-11.4,27.87a16.19,16.19,0,0,0,.3,12.54c4.91,12.18,4.79,24.73,1.45,37.14-3.45,12.81-13.49,20-27.46,21.63a35.9,35.9,0,0,1-17-1.65c-6.89-2.58-13.06-1.26-18.63,3.64a70.26,70.26,0,0,1-29.41,15.29c-15.49,4-30,.84-43.83-6.44-18-9.49-29.92-24.53-37.79-43-6.43-15.09-8.64-30.93-8-47.26,1-25.7,7.33-50.08,17.68-73.52,3.8-8.6,7.48-17.25,11.22-25.88C351.22,1070,351.77,1068.92,352.34,1067.72Z" transform="translate(-59.26 -89.72)"/><path class="cls-2" d="M1140.33,256.3c-8,0-15.51-.32-23,.06-30.26,1.52-59.78,6.68-87.76,18.87-2.39,1-3.73.9-5.51-1.34a93.56,93.56,0,0,0-49.5-32.52A89.76,89.76,0,0,0,950,238c-3.88,0-3.93,0-4.93-3.44A338.5,338.5,0,0,0,925,181c-1-2-.55-3.08,1-4.49,29.73-27.86,62.9-49.94,102.64-60.88a165.39,165.39,0,0,1,37.26-5.5c16.71-.69,29.63,6,39.86,18.8,8.91,11.12,14.69,23.88,19.2,37.24,6.57,19.42,10.33,39.46,12.76,59.78C1138.85,235.74,1139.58,245.6,1140.33,256.3Z" transform="translate(-59.26 -89.72)"/><path class="cls-4" d="M1129.36,276.38a78,78,0,0,1,22.88,2.2c19.15,4.88,30.24,17.46,34.28,36.56,3.09,14.67,1.78,29.28-1.23,43.75-9.5,45.7-34.06,82.08-69.64,111.53a110.8,110.8,0,0,1-9.43,6.56c-15.12,10.06-31.19,11-48,5-17.77-6.38-31.4-18.1-42.58-32.95A140.72,140.72,0,0,1,999,419.48c-1-2.44-.66-3.64,1.54-5a57.55,57.55,0,0,0,8.19-5.82c2.1-1.82,3.27-1.41,5,.47,9.1,9.86,20.52,15.44,33.62,17.9a49.94,49.94,0,0,0,56.94-34.34,68,68,0,0,0,1.55-34.1c-2.61-12.45-9.85-22-20-29.45-11-8.07-23.6-12.62-36.82-15.35-4.38-.9-7.14-2.21-7.69-7.13-.33-2.93-1.82-5.75-2.88-8.59-1.48-3.94-1.52-3.94,2.55-5.61a182.37,182.37,0,0,1,26.38-8.54A246.25,246.25,0,0,1,1114.6,277C1119.54,276.79,1124.47,276.24,1129.36,276.38Z" transform="translate(-59.26 -89.72)"/><path class="cls-4" d="M547.69,1036.87c-.08,18.33-3.73,33.37-8,48.26a349.58,349.58,0,0,1-13,36.51c-.12.3-.21.61-.34.9-2.3,5.36-3.47,5.77-8.62,3.18-11-5.53-21.89-11.16-32.94-16.52q-57.69-28-115.44-55.79l-1.72-.84c-6-2.92-6.31-3.71-3-9.29A269.28,269.28,0,0,1,389,1008.35c12.13-14.59,25.79-27.5,42-37.58,11.73-7.32,24.17-13,37.83-15.61,23.07-4.47,42.31,2.24,57.37,20.21,10.61,12.66,16.36,27.65,19.47,43.72C546.94,1025.84,547.83,1032.64,547.69,1036.87Z" transform="translate(-59.26 -89.72)"/><path class="cls-4" d="M1024.75,333.5c.4,42.36-35,75.43-75.12,75.41-41.11,0-75.29-34.1-75.28-75.33,0-37.66,29.87-75.27,75.46-75.14C994.66,258.56,1025.15,295.32,1024.75,333.5Z" transform="translate(-59.26 -89.72)"/><path class="cls-2" d="M991,977c5.82,2.18,11.21,4.47,17,5.52,10,1.8,19.63,1.29,29.06-2.7,8.3-3.51,16.88-5.69,26-5.27,13.37.61,22.61,9,23.59,22.34.89,12.05,4.71,23.05,10.4,33.54,2.66,4.9,5.19,9.91,8.23,14.58,5.7,8.75,6.63,18.06,4.32,28-2.4,10.3-5.52,20.4-11.09,29.41-4.92,8-10.67,15.41-16.17,23.26-35.1-33.26-75.12-55.85-124.3-60.54C970.94,1036.57,980.93,1006.87,991,977Z" transform="translate(-59.26 -89.72)"/><path class="cls-2" d="M402.19,1312.24c-5.1,0-9.52.17-13.92,0-8-.38-15.93-1.13-23.9-1.47a512.26,512.26,0,0,1-54.76-5.18c-14.95-2.26-29.74-5.39-43.78-11.31a73.46,73.46,0,0,1-19.2-11.45c-18.34-15.48-13.82-43.37,2-55.41,7.4-5.65,15.8-8.84,24.73-10.86,10.37-2.35,20.93-2,31.46-2,2.51,0,2.72,1.58,3.29,3.25a113.26,113.26,0,0,0,14.76,29.4c14.79,20.86,34.13,35,59.5,40.29a4.66,4.66,0,0,1,3.34,2.37A162.43,162.43,0,0,0,402.19,1312.24Z" transform="translate(-59.26 -89.72)"/><path class="cls-4" d="M638.22,972c3.28,0,6.3-.12,9.31,0,25.21,1.16,50.43,2,75.67,1.46,23.3-.47,46.6-1.2,69.86-2.79,6.69-.46,13.35-1.23,20-1.71,2.86-.2,3.16.18,2.82,2.87a107.15,107.15,0,0,1-4.12,20.11c-6.17,19.06-19.38,31-38.25,36.3-40.9,11.46-77.63,3.83-109.3-25.29a181.13,181.13,0,0,1-24-27.27A8,8,0,0,1,638.22,972Z" transform="translate(-59.26 -89.72)"/><path class="cls-4" d="M814.37,284.89A51.61,51.61,0,0,1,816.21,271a35.69,35.69,0,0,1,30.6-26.55q22-2.58,35.85,14.71c2.74,3.42,2.64,3.48-.33,6.5-15.8,16-25.25,35.07-27.74,57.48-.22,1.92-.31,3.65-3,2.87-9.56-2.82-18.69-6.51-26.21-13.32C817.29,305.37,814.11,296,814.37,284.89Z" transform="translate(-59.26 -89.72)"/><path class="cls-4" d="M1045.58,333.92c8.45,1.93,16.14,4.48,23.26,8.57,17.2,9.9,19.57,21.87,17.43,37-2.57,18.12-11.43,26.11-29.76,27.93-4.55.45-8.82-1-13-2.45a36.75,36.75,0,0,1-14.75-9.51c-3.18-3.38-3.22-3.38-.62-7.15a95.83,95.83,0,0,0,15-34.45C1044.52,347.45,1044.84,340.9,1045.58,333.92Z" transform="translate(-59.26 -89.72)"/><path class="cls-4" d="M945.53,1041.74C934,1015.28,922,990,908.6,964.94c4.72-2,9.28-2.51,13.73-3.25,10.62-1.75,21.27-2.1,31.84.51a43.8,43.8,0,0,1,15.15,6.88c1.42,1,2.17,1.94,1.5,3.95-7.51,22.38-15.11,44.72-24,66.59C946.63,1040.05,946.33,1040.42,945.53,1041.74Z" transform="translate(-59.26 -89.72)"/><path class="cls-5" d="M906.08,664.35c-.08-13.57,3-25.1,10.06-35.44a39.87,39.87,0,0,1,10.4-10.48c11.35-7.74,25.16-7.53,36.14.75,9.9,7.46,15.39,17.75,17.92,29.65,3.68,17.29,1.51,33.7-8.57,48.54-5.66,8.34-13.29,14-23.56,15.77a28.51,28.51,0,0,1-19.7-3.95c-10.81-6.35-16.75-16.36-20.28-28A53.78,53.78,0,0,1,906.08,664.35Z" transform="translate(-59.26 -89.72)"/><path class="cls-5" d="M399.55,676c0-13.1,2.64-24.27,9-34.44a42.73,42.73,0,0,1,8.7-10.12c12.55-10.57,28.72-10.17,40.73,1,8.37,7.79,13,17.61,15.21,28.65,3.12,15.55,1.3,30.47-6.31,44.5a41.29,41.29,0,0,1-12.08,14c-10.85,7.89-24.29,8-35.2.19-9.38-6.72-14.56-16.28-17.71-27.08A57.92,57.92,0,0,1,399.55,676Z" transform="translate(-59.26 -89.72)"/><path d="M700.21,797.43a67.09,67.09,0,0,1-38.08-10.62,48.32,48.32,0,0,1-12.93-12C638,759.71,639.15,740.48,652,726.68c8.32-8.91,18.62-14.32,30.34-17.12,17.85-4.27,35.08-2.54,51.48,5.94a51.14,51.14,0,0,1,16,12.72c12.6,15.12,12.21,35.1-1,49.69C739.71,788,728.05,793.43,715,796.2A70.88,70.88,0,0,1,700.21,797.43Z" transform="translate(-59.26 -89.72)"/><path class="cls-6" d="M700.3,727.81a48.61,48.61,0,0,1,24.81,6.06,29.42,29.42,0,0,1,10.88,9.9c3.68,5.84,3.67,11.75-.06,17.57s-9.27,9.63-15.65,12.11a52.83,52.83,0,0,1-42.29-1,33.23,33.23,0,0,1-10.83-7.77c-7-7.55-7.19-16.38-.29-24.05,5.66-6.29,13-9.57,21.08-11.58A55.8,55.8,0,0,1,700.3,727.81Z" transform="translate(-59.26 -89.72)"/></svg>